// =============================================================================================
//                                      SONG HEX
// =============================================================================================

pub const MIDI_DATA: &[u8] = &[
    0x4d, 0x54, 0x68, 0x64, 0x00, 0x00, 0x00, 0x06, 0x00, 0x01, 0x00, 0x0a, 0x00, 0x60, 0x4d, 0x54,
    0x72, 0x6b, 0x00, 0x00, 0x00, 0x5c, 0x00, 0xff, 0x01, 0x24, 0x43, 0x6f, 0x6d, 0x70, 0x6f, 0x73,
    0x65, 0x64, 0x20, 0x77, 0x69, 0x74, 0x68, 0x20, 0x68, 0x74, 0x74, 0x70, 0x73, 0x3a, 0x2f, 0x2f,
    0x77, 0x77, 0x77, 0x2e, 0x62, 0x65, 0x65, 0x70, 0x62, 0x6f, 0x78, 0x2e, 0x63, 0x6f, 0x00, 0xff,
    0x51, 0x03, 0x04, 0xb1, 0xec, 0x00, 0xff, 0x58, 0x04, 0x04, 0x02, 0x18, 0x08, 0x00, 0xff, 0x59,
    0x02, 0x03, 0x00, 0x00, 0xff, 0x06, 0x0a, 0x4c, 0x6f, 0x6f, 0x70, 0x20, 0x53, 0x74, 0x61, 0x72,
    0x74, 0xfb, 0x00, 0xff, 0x06, 0x08, 0x4c, 0x6f, 0x6f, 0x70, 0x20, 0x45, 0x6e, 0x64, 0x00, 0xff,
    0x2f, 0x00, 0x4d, 0x54, 0x72, 0x6b, 0x00, 0x00, 0x05, 0x95, 0x00, 0xff, 0x03, 0x0e, 0x70, 0x69,
    0x74, 0x63, 0x68, 0x31, 0x20, 0x63, 0x68, 0x61, 0x6e, 0x6e, 0x65, 0x6c, 0x00, 0xb0, 0x65, 0x00,
    0x00, 0xb0, 0x64, 0x00, 0x00, 0xb0, 0x06, 0x18, 0x00, 0xb0, 0x26, 0x00, 0x00, 0xb0, 0x65, 0x7f,
    0x00, 0xb0, 0x64, 0x7f, 0x00, 0xff, 0x04, 0x0c, 0x49, 0x6e, 0x73, 0x74, 0x72, 0x75, 0x6d, 0x65,
    0x6e, 0x74, 0x20, 0x31, 0x00, 0xc0, 0x44, 0x00, 0xb0, 0x07, 0x64, 0x00, 0xb0, 0x0a, 0x40, 0x00,
    0x90, 0x51, 0x5a, 0x18, 0x80, 0x51, 0x5a, 0x48, 0x90, 0x4c, 0x5a, 0x30, 0x80, 0x4c, 0x5a, 0x00,
    0x90, 0x4a, 0x5a, 0x30, 0x80, 0x4a, 0x5a, 0x00, 0x90, 0x49, 0x5a, 0x81, 0x00, 0x80, 0x49, 0x5a,
    0x10, 0x90, 0x49, 0x5a, 0x30, 0x80, 0x49, 0x5a, 0x00, 0x90, 0x4a, 0x5a, 0x30, 0x80, 0x4a, 0x5a,
    0x00, 0x90, 0x4c, 0x5a, 0x30, 0x80, 0x4c, 0x5a, 0x00, 0x90, 0x4e, 0x5a, 0x30, 0x80, 0x4e, 0x5a,
    0x00, 0x90, 0x50, 0x5a, 0x30, 0x80, 0x50, 0x5a, 0x00, 0x90, 0x4c, 0x5a, 0x81, 0x28, 0x80, 0x4c,
    0x5a, 0x18, 0x90, 0x4e, 0x5a, 0x18, 0x80, 0x4e, 0x5a, 0x48, 0x90, 0x4c, 0x5a, 0x30, 0x80, 0x4c,
    0x5a, 0x00, 0x90, 0x4a, 0x5a, 0x30, 0x80, 0x4a, 0x5a, 0x00, 0x90, 0x49, 0x5a, 0x18, 0x80, 0x49,
    0x5a, 0x48, 0x90, 0x49, 0x5a, 0x18, 0x80, 0x49, 0x5a, 0x48, 0x90, 0x47, 0x5a, 0x18, 0x80, 0x47,
    0x5a, 0x48, 0x90, 0x49, 0x5a, 0x18, 0x80, 0x49, 0x5a, 0x48, 0x90, 0x4a, 0x5a, 0x81, 0x28, 0x80,
    0x4a, 0x5a, 0x18, 0x90, 0x51, 0x5a, 0x18, 0x80, 0x51, 0x5a, 0x48, 0x90, 0x4c, 0x5a, 0x30, 0x80,
    0x4c, 0x5a, 0x00, 0x90, 0x4a, 0x5a, 0x30, 0x80, 0x4a, 0x5a, 0x00, 0x90, 0x49, 0x5a, 0x81, 0x04,
    0x80, 0x49, 0x5a, 0x3c, 0x90, 0x49, 0x5a, 0x30, 0x80, 0x49, 0x5a, 0x00, 0x90, 0x4a, 0x5a, 0x30,
    0x80, 0x4a, 0x5a, 0x00, 0x90, 0x4c, 0x5a, 0x30, 0x80, 0x4c, 0x5a, 0x00, 0x90, 0x4e, 0x5a, 0x30,
    0x80, 0x4e, 0x5a, 0x00, 0x90, 0x4a, 0x5a, 0x81, 0x28, 0x80, 0x4a, 0x5a, 0x18, 0x90, 0x4e, 0x5a,
    0x30, 0x80, 0x4e, 0x5a, 0x00, 0x90, 0x4c, 0x5a, 0x30, 0x80, 0x4c, 0x5a, 0x00, 0x90, 0x4a, 0x5a,
    0x30, 0x80, 0x4a, 0x5a, 0x00, 0x90, 0x49, 0x5a, 0x30, 0x80, 0x49, 0x5a, 0x00, 0x90, 0x47, 0x5a,
    0x30, 0x80, 0x47, 0x5a, 0x00, 0x90, 0x49, 0x5a, 0x30, 0x80, 0x49, 0x5a, 0x00, 0x90, 0x4a, 0x5a,
    0x30, 0x80, 0x4a, 0x5a, 0x00, 0x90, 0x4e, 0x5a, 0x30, 0x80, 0x4e, 0x5a, 0x00, 0x90, 0x4c, 0x5a,
    0x30, 0x80, 0x4c, 0x5a, 0x00, 0x90, 0x4a, 0x5a, 0x30, 0x80, 0x4a, 0x5a, 0x00, 0x90, 0x49, 0x5a,
    0x30, 0x80, 0x49, 0x5a, 0x00, 0x90, 0x47, 0x5a, 0x30, 0x80, 0x47, 0x5a, 0x00, 0x90, 0x45, 0x5a,
    0x81, 0x28, 0x80, 0x45, 0x5a, 0x18, 0x90, 0x49, 0x5a, 0x30, 0x80, 0x49, 0x5a, 0x00, 0x90, 0x47,
    0x5a, 0x30, 0x80, 0x47, 0x5a, 0x00, 0x90, 0x49, 0x5a, 0x18, 0x80, 0x49, 0x5a, 0x48, 0x90, 0x49,
    0x5a, 0x18, 0x80, 0x49, 0x5a, 0x48, 0x90, 0x49, 0x5a, 0x30, 0x80, 0x49, 0x5a, 0x00, 0x90, 0x47,
    0x5a, 0x30, 0x80, 0x47, 0x5a, 0x00, 0x90, 0x49, 0x5a, 0x18, 0x80, 0x49, 0x5a, 0x48, 0x90, 0x47,
    0x5a, 0x18, 0x80, 0x47, 0x5a, 0x48, 0x90, 0x49, 0x5a, 0x81, 0x04, 0x80, 0x49, 0x5a, 0x3c, 0x90,
    0x45, 0x5a, 0x30, 0x80, 0x45, 0x5a, 0x00, 0x90, 0x47, 0x5a, 0x30, 0x80, 0x47, 0x5a, 0x00, 0x90,
    0x49, 0x5a, 0x30, 0x80, 0x49, 0x5a, 0x00, 0x90, 0x4a, 0x5a, 0x30, 0x80, 0x4a, 0x5a, 0x00, 0x90,
    0x49, 0x5a, 0x18, 0x80, 0x49, 0x5a, 0x48, 0x90, 0x47, 0x5a, 0x18, 0x80, 0x47, 0x5a, 0x48, 0x90,
    0x49, 0x5a, 0x81, 0x28, 0x80, 0x49, 0x5a, 0x81, 0x58, 0x90, 0x49, 0x5a, 0x30, 0x80, 0x49, 0x5a,
    0x00, 0x90, 0x47, 0x5a, 0x30, 0x80, 0x47, 0x5a, 0x00, 0x90, 0x49, 0x5a, 0x18, 0x80, 0x49, 0x5a,
    0x48, 0x90, 0x49, 0x5a, 0x18, 0x80, 0x49, 0x5a, 0x48, 0x90, 0x4a, 0x5a, 0x30, 0x80, 0x4a, 0x5a,
    0x00, 0x90, 0x49, 0x5a, 0x30, 0x80, 0x49, 0x5a, 0x00, 0x90, 0x47, 0x5a, 0x18, 0x80, 0x47, 0x5a,
    0x48, 0x90, 0x45, 0x5a, 0x18, 0x80, 0x45, 0x5a, 0x48, 0x90, 0x49, 0x5a, 0x81, 0x28, 0x80, 0x49,
    0x5a, 0x18, 0x90, 0x49, 0x5a, 0x30, 0x80, 0x49, 0x5a, 0x00, 0x90, 0x47, 0x5a, 0x30, 0x80, 0x47,
    0x5a, 0x00, 0x90, 0x49, 0x5a, 0x30, 0x80, 0x49, 0x5a, 0x00, 0x90, 0x4a, 0x5a, 0x30, 0x80, 0x4a,
    0x5a, 0x00, 0x90, 0x49, 0x5a, 0x18, 0x80, 0x49, 0x5a, 0x48, 0x90, 0x45, 0x5a, 0x18, 0x80, 0x45,
    0x5a, 0x48, 0x90, 0x49, 0x5a, 0x81, 0x28, 0x80, 0x49, 0x5a, 0x81, 0x58, 0x90, 0x4c, 0x5a, 0x30,
    0x80, 0x4c, 0x5a, 0x00, 0x90, 0x4a, 0x5a, 0x30, 0x80, 0x4a, 0x5a, 0x00, 0x90, 0x4c, 0x5a, 0x18,
    0x80, 0x4c, 0x5a, 0x48, 0x90, 0x4c, 0x5a, 0x18, 0x80, 0x4c, 0x5a, 0x48, 0x90, 0x4c, 0x5a, 0x30,
    0x80, 0x4c, 0x5a, 0x00, 0x90, 0x4a, 0x5a, 0x30, 0x80, 0x4a, 0x5a, 0x00, 0x90, 0x4c, 0x5a, 0x18,
    0x80, 0x4c, 0x5a, 0x48, 0x90, 0x4e, 0x5a, 0x18, 0x80, 0x4e, 0x5a, 0x48, 0x90, 0x4c, 0x5a, 0x81,
    0x28, 0x80, 0x4c, 0x5a, 0x18, 0x90, 0x50, 0x5a, 0x18, 0x80, 0x50, 0x5a, 0x48, 0x90, 0x50, 0x5a,
    0x30, 0x80, 0x50, 0x5a, 0x00, 0x90, 0x4e, 0x5a, 0x30, 0x80, 0x4e, 0x5a, 0x00, 0x90, 0x4c, 0x5a,
    0x18, 0x80, 0x4c, 0x5a, 0x48, 0x90, 0x4a, 0x5a, 0x18, 0x80, 0x4a, 0x5a, 0x48, 0x90, 0x4c, 0x5a,
    0x81, 0x28, 0x80, 0x4c, 0x5a, 0x81, 0x58, 0x90, 0x49, 0x5a, 0x30, 0x80, 0x49, 0x5a, 0x00, 0x90,
    0x47, 0x5a, 0x30, 0x80, 0x47, 0x5a, 0x00, 0x90, 0x49, 0x5a, 0x18, 0x80, 0x49, 0x5a, 0x48, 0x90,
    0x49, 0x5a, 0x18, 0x80, 0x49, 0x5a, 0x48, 0x90, 0x47, 0x5a, 0x30, 0x80, 0x47, 0x5a, 0x00, 0x90,
    0x49, 0x5a, 0x30, 0x80, 0x49, 0x5a, 0x00, 0x90, 0x4a, 0x5a, 0x18, 0x80, 0x4a, 0x5a, 0x48, 0x90,
    0x47, 0x5a, 0x18, 0x80, 0x47, 0x5a, 0x48, 0x90, 0x49, 0x5a, 0x81, 0x28, 0x80, 0x49, 0x5a, 0x18,
    0x90, 0x49, 0x5a, 0x30, 0x80, 0x49, 0x5a, 0x00, 0x90, 0x47, 0x5a, 0x30, 0x80, 0x47, 0x5a, 0x00,
    0x90, 0x49, 0x5a, 0x30, 0x80, 0x49, 0x5a, 0x00, 0x90, 0x4a, 0x5a, 0x30, 0x80, 0x4a, 0x5a, 0x00,
    0x90, 0x49, 0x5a, 0x18, 0x80, 0x49, 0x5a, 0x48, 0x90, 0x45, 0x5a, 0x18, 0x80, 0x45, 0x5a, 0x48,
    0x90, 0x45, 0x5a, 0x18, 0x80, 0x45, 0x5a, 0x82, 0x68, 0x90, 0x49, 0x5a, 0x30, 0x80, 0x49, 0x5a,
    0x00, 0x90, 0x47, 0x5a, 0x30, 0x80, 0x47, 0x5a, 0x00, 0x90, 0x49, 0x5a, 0x18, 0x80, 0x49, 0x5a,
    0x48, 0x90, 0x49, 0x5a, 0x18, 0x80, 0x49, 0x5a, 0x48, 0x90, 0x49, 0x5a, 0x30, 0x80, 0x49, 0x5a,
    0x00, 0x90, 0x47, 0x5a, 0x30, 0x80, 0x47, 0x5a, 0x00, 0x90, 0x49, 0x5a, 0x18, 0x80, 0x49, 0x5a,
    0x48, 0x90, 0x47, 0x5a, 0x18, 0x80, 0x47, 0x5a, 0x48, 0x90, 0x49, 0x5a, 0x81, 0x04, 0x80, 0x49,
    0x5a, 0x3c, 0x90, 0x45, 0x5a, 0x30, 0x80, 0x45, 0x5a, 0x00, 0x90, 0x47, 0x5a, 0x30, 0x80, 0x47,
    0x5a, 0x00, 0x90, 0x49, 0x5a, 0x30, 0x80, 0x49, 0x5a, 0x00, 0x90, 0x4a, 0x5a, 0x30, 0x80, 0x4a,
    0x5a, 0x00, 0x90, 0x49, 0x5a, 0x18, 0x80, 0x49, 0x5a, 0x48, 0x90, 0x47, 0x5a, 0x18, 0x80, 0x47,
    0x5a, 0x48, 0x90, 0x49, 0x5a, 0x81, 0x28, 0x80, 0x49, 0x5a, 0x81, 0x58, 0x90, 0x49, 0x5a, 0x30,
    0x80, 0x49, 0x5a, 0x00, 0x90, 0x47, 0x5a, 0x30, 0x80, 0x47, 0x5a, 0x00, 0x90, 0x49, 0x5a, 0x18,
    0x80, 0x49, 0x5a, 0x48, 0x90, 0x49, 0x5a, 0x18, 0x80, 0x49, 0x5a, 0x48, 0x90, 0x4a, 0x5a, 0x30,
    0x80, 0x4a, 0x5a, 0x00, 0x90, 0x49, 0x5a, 0x30, 0x80, 0x49, 0x5a, 0x00, 0x90, 0x47, 0x5a, 0x18,
    0x80, 0x47, 0x5a, 0x48, 0x90, 0x45, 0x5a, 0x18, 0x80, 0x45, 0x5a, 0x48, 0x90, 0x49, 0x5a, 0x81,
    0x28, 0x80, 0x49, 0x5a, 0x18, 0x90, 0x49, 0x5a, 0x30, 0x80, 0x49, 0x5a, 0x00, 0x90, 0x47, 0x5a,
    0x30, 0x80, 0x47, 0x5a, 0x00, 0x90, 0x49, 0x5a, 0x30, 0x80, 0x49, 0x5a, 0x00, 0x90, 0x4a, 0x5a,
    0x30, 0x80, 0x4a, 0x5a, 0x00, 0x90, 0x49, 0x5a, 0x18, 0x80, 0x49, 0x5a, 0x48, 0x90, 0x45, 0x5a,
    0x18, 0x80, 0x45, 0x5a, 0x48, 0x90, 0x49, 0x5a, 0x81, 0x28, 0x80, 0x49, 0x5a, 0x81, 0x58, 0x90,
    0x4c, 0x5a, 0x30, 0x80, 0x4c, 0x5a, 0x00, 0x90, 0x4a, 0x5a, 0x30, 0x80, 0x4a, 0x5a, 0x00, 0x90,
    0x4c, 0x5a, 0x18, 0x80, 0x4c, 0x5a, 0x48, 0x90, 0x4c, 0x5a, 0x18, 0x80, 0x4c, 0x5a, 0x48, 0x90,
    0x4c, 0x5a, 0x30, 0x80, 0x4c, 0x5a, 0x00, 0x90, 0x4a, 0x5a, 0x30, 0x80, 0x4a, 0x5a, 0x00, 0x90,
    0x4c, 0x5a, 0x18, 0x80, 0x4c, 0x5a, 0x48, 0x90, 0x4e, 0x5a, 0x18, 0x80, 0x4e, 0x5a, 0x48, 0x90,
    0x4c, 0x5a, 0x81, 0x28, 0x80, 0x4c, 0x5a, 0x18, 0x90, 0x50, 0x5a, 0x18, 0x80, 0x50, 0x5a, 0x48,
    0x90, 0x50, 0x5a, 0x30, 0x80, 0x50, 0x5a, 0x00, 0x90, 0x4e, 0x5a, 0x30, 0x80, 0x4e, 0x5a, 0x00,
    0x90, 0x4c, 0x5a, 0x18, 0x80, 0x4c, 0x5a, 0x48, 0x90, 0x4a, 0x5a, 0x18, 0x80, 0x4a, 0x5a, 0x48,
    0x90, 0x4c, 0x5a, 0x81, 0x28, 0x80, 0x4c, 0x5a, 0x81, 0x58, 0x90, 0x49, 0x5a, 0x30, 0x80, 0x49,
    0x5a, 0x00, 0x90, 0x47, 0x5a, 0x30, 0x80, 0x47, 0x5a, 0x00, 0x90, 0x49, 0x5a, 0x18, 0x80, 0x49,
    0x5a, 0x48, 0x90, 0x49, 0x5a, 0x18, 0x80, 0x49, 0x5a, 0x48, 0x90, 0x47, 0x5a, 0x30, 0x80, 0x47,
    0x5a, 0x00, 0x90, 0x49, 0x5a, 0x30, 0x80, 0x49, 0x5a, 0x00, 0x90, 0x4a, 0x5a, 0x18, 0x80, 0x4a,
    0x5a, 0x48, 0x90, 0x47, 0x5a, 0x18, 0x80, 0x47, 0x5a, 0x48, 0x90, 0x49, 0x5a, 0x81, 0x28, 0x80,
    0x49, 0x5a, 0x18, 0x90, 0x49, 0x5a, 0x30, 0x80, 0x49, 0x5a, 0x00, 0x90, 0x47, 0x5a, 0x30, 0x80,
    0x47, 0x5a, 0x00, 0x90, 0x49, 0x5a, 0x30, 0x80, 0x49, 0x5a, 0x00, 0x90, 0x4a, 0x5a, 0x30, 0x80,
    0x4a, 0x5a, 0x00, 0x90, 0x49, 0x5a, 0x18, 0x80, 0x49, 0x5a, 0x48, 0x90, 0x45, 0x5a, 0x18, 0x80,
    0x45, 0x5a, 0x48, 0x90, 0x45, 0x5a, 0x18, 0x80, 0x45, 0x5a, 0x85, 0x68, 0xff, 0x2f, 0x00, 0x4d,
    0x54, 0x72, 0x6b, 0x00, 0x00, 0x05, 0x95, 0x00, 0xff, 0x03, 0x0e, 0x70, 0x69, 0x74, 0x63, 0x68,
    0x32, 0x20, 0x63, 0x68, 0x61, 0x6e, 0x6e, 0x65, 0x6c, 0x00, 0xb1, 0x65, 0x00, 0x00, 0xb1, 0x64,
    0x00, 0x00, 0xb1, 0x06, 0x18, 0x00, 0xb1, 0x26, 0x00, 0x00, 0xb1, 0x65, 0x7f, 0x00, 0xb1, 0x64,
    0x7f, 0x00, 0xff, 0x04, 0x0c, 0x49, 0x6e, 0x73, 0x74, 0x72, 0x75, 0x6d, 0x65, 0x6e, 0x74, 0x20,
    0x31, 0x00, 0xc1, 0x41, 0x00, 0xb1, 0x07, 0x5c, 0x00, 0xb1, 0x0a, 0x40, 0x00, 0x91, 0x51, 0x5a,
    0x18, 0x81, 0x51, 0x5a, 0x48, 0x91, 0x4c, 0x5a, 0x30, 0x81, 0x4c, 0x5a, 0x00, 0x91, 0x4a, 0x5a,
    0x30, 0x81, 0x4a, 0x5a, 0x00, 0x91, 0x49, 0x5a, 0x81, 0x00, 0x81, 0x49, 0x5a, 0x10, 0x91, 0x49,
    0x5a, 0x30, 0x81, 0x49, 0x5a, 0x00, 0x91, 0x4a, 0x5a, 0x30, 0x81, 0x4a, 0x5a, 0x00, 0x91, 0x4c,
    0x5a, 0x30, 0x81, 0x4c, 0x5a, 0x00, 0x91, 0x4e, 0x5a, 0x30, 0x81, 0x4e, 0x5a, 0x00, 0x91, 0x50,
    0x5a, 0x30, 0x81, 0x50, 0x5a, 0x00, 0x91, 0x4c, 0x5a, 0x81, 0x28, 0x81, 0x4c, 0x5a, 0x18, 0x91,
    0x4e, 0x5a, 0x18, 0x81, 0x4e, 0x5a, 0x48, 0x91, 0x4c, 0x5a, 0x30, 0x81, 0x4c, 0x5a, 0x00, 0x91,
    0x4a, 0x5a, 0x30, 0x81, 0x4a, 0x5a, 0x00, 0x91, 0x49, 0x5a, 0x18, 0x81, 0x49, 0x5a, 0x48, 0x91,
    0x49, 0x5a, 0x18, 0x81, 0x49, 0x5a, 0x48, 0x91, 0x47, 0x5a, 0x18, 0x81, 0x47, 0x5a, 0x48, 0x91,
    0x49, 0x5a, 0x18, 0x81, 0x49, 0x5a, 0x48, 0x91, 0x4a, 0x5a, 0x81, 0x28, 0x81, 0x4a, 0x5a, 0x18,
    0x91, 0x51, 0x5a, 0x18, 0x81, 0x51, 0x5a, 0x48, 0x91, 0x4c, 0x5a, 0x30, 0x81, 0x4c, 0x5a, 0x00,
    0x91, 0x4a, 0x5a, 0x30, 0x81, 0x4a, 0x5a, 0x00, 0x91, 0x49, 0x5a, 0x81, 0x04, 0x81, 0x49, 0x5a,
    0x3c, 0x91, 0x49, 0x5a, 0x30, 0x81, 0x49, 0x5a, 0x00, 0x91, 0x4a, 0x5a, 0x30, 0x81, 0x4a, 0x5a,
    0x00, 0x91, 0x4c, 0x5a, 0x30, 0x81, 0x4c, 0x5a, 0x00, 0x91, 0x4e, 0x5a, 0x30, 0x81, 0x4e, 0x5a,
    0x00, 0x91, 0x4a, 0x5a, 0x81, 0x28, 0x81, 0x4a, 0x5a, 0x18, 0x91, 0x4e, 0x5a, 0x30, 0x81, 0x4e,
    0x5a, 0x00, 0x91, 0x4c, 0x5a, 0x30, 0x81, 0x4c, 0x5a, 0x00, 0x91, 0x4a, 0x5a, 0x30, 0x81, 0x4a,
    0x5a, 0x00, 0x91, 0x49, 0x5a, 0x30, 0x81, 0x49, 0x5a, 0x00, 0x91, 0x47, 0x5a, 0x30, 0x81, 0x47,
    0x5a, 0x00, 0x91, 0x49, 0x5a, 0x30, 0x81, 0x49, 0x5a, 0x00, 0x91, 0x4a, 0x5a, 0x30, 0x81, 0x4a,
    0x5a, 0x00, 0x91, 0x4e, 0x5a, 0x30, 0x81, 0x4e, 0x5a, 0x00, 0x91, 0x4c, 0x5a, 0x30, 0x81, 0x4c,
    0x5a, 0x00, 0x91, 0x4a, 0x5a, 0x30, 0x81, 0x4a, 0x5a, 0x00, 0x91, 0x49, 0x5a, 0x30, 0x81, 0x49,
    0x5a, 0x00, 0x91, 0x47, 0x5a, 0x30, 0x81, 0x47, 0x5a, 0x00, 0x91, 0x45, 0x5a, 0x81, 0x28, 0x81,
    0x45, 0x5a, 0x18, 0x91, 0x49, 0x5a, 0x30, 0x81, 0x49, 0x5a, 0x00, 0x91, 0x47, 0x5a, 0x30, 0x81,
    0x47, 0x5a, 0x00, 0x91, 0x49, 0x5a, 0x18, 0x81, 0x49, 0x5a, 0x48, 0x91, 0x49, 0x5a, 0x18, 0x81,
    0x49, 0x5a, 0x48, 0x91, 0x49, 0x5a, 0x30, 0x81, 0x49, 0x5a, 0x00, 0x91, 0x47, 0x5a, 0x30, 0x81,
    0x47, 0x5a, 0x00, 0x91, 0x49, 0x5a, 0x18, 0x81, 0x49, 0x5a, 0x48, 0x91, 0x47, 0x5a, 0x18, 0x81,
    0x47, 0x5a, 0x48, 0x91, 0x49, 0x5a, 0x81, 0x04, 0x81, 0x49, 0x5a, 0x3c, 0x91, 0x45, 0x5a, 0x30,
    0x81, 0x45, 0x5a, 0x00, 0x91, 0x47, 0x5a, 0x30, 0x81, 0x47, 0x5a, 0x00, 0x91, 0x49, 0x5a, 0x30,
    0x81, 0x49, 0x5a, 0x00, 0x91, 0x4a, 0x5a, 0x30, 0x81, 0x4a, 0x5a, 0x00, 0x91, 0x49, 0x5a, 0x18,
    0x81, 0x49, 0x5a, 0x48, 0x91, 0x47, 0x5a, 0x18, 0x81, 0x47, 0x5a, 0x48, 0x91, 0x49, 0x5a, 0x81,
    0x28, 0x81, 0x49, 0x5a, 0x81, 0x58, 0x91, 0x49, 0x5a, 0x30, 0x81, 0x49, 0x5a, 0x00, 0x91, 0x47,
    0x5a, 0x30, 0x81, 0x47, 0x5a, 0x00, 0x91, 0x49, 0x5a, 0x18, 0x81, 0x49, 0x5a, 0x48, 0x91, 0x49,
    0x5a, 0x18, 0x81, 0x49, 0x5a, 0x48, 0x91, 0x4a, 0x5a, 0x30, 0x81, 0x4a, 0x5a, 0x00, 0x91, 0x49,
    0x5a, 0x30, 0x81, 0x49, 0x5a, 0x00, 0x91, 0x47, 0x5a, 0x18, 0x81, 0x47, 0x5a, 0x48, 0x91, 0x45,
    0x5a, 0x18, 0x81, 0x45, 0x5a, 0x48, 0x91, 0x49, 0x5a, 0x81, 0x28, 0x81, 0x49, 0x5a, 0x18, 0x91,
    0x49, 0x5a, 0x30, 0x81, 0x49, 0x5a, 0x00, 0x91, 0x47, 0x5a, 0x30, 0x81, 0x47, 0x5a, 0x00, 0x91,
    0x49, 0x5a, 0x30, 0x81, 0x49, 0x5a, 0x00, 0x91, 0x4a, 0x5a, 0x30, 0x81, 0x4a, 0x5a, 0x00, 0x91,
    0x49, 0x5a, 0x18, 0x81, 0x49, 0x5a, 0x48, 0x91, 0x45, 0x5a, 0x18, 0x81, 0x45, 0x5a, 0x48, 0x91,
    0x49, 0x5a, 0x81, 0x28, 0x81, 0x49, 0x5a, 0x81, 0x58, 0x91, 0x4c, 0x5a, 0x30, 0x81, 0x4c, 0x5a,
    0x00, 0x91, 0x4a, 0x5a, 0x30, 0x81, 0x4a, 0x5a, 0x00, 0x91, 0x4c, 0x5a, 0x18, 0x81, 0x4c, 0x5a,
    0x48, 0x91, 0x4c, 0x5a, 0x18, 0x81, 0x4c, 0x5a, 0x48, 0x91, 0x4c, 0x5a, 0x30, 0x81, 0x4c, 0x5a,
    0x00, 0x91, 0x4a, 0x5a, 0x30, 0x81, 0x4a, 0x5a, 0x00, 0x91, 0x4c, 0x5a, 0x18, 0x81, 0x4c, 0x5a,
    0x48, 0x91, 0x4e, 0x5a, 0x18, 0x81, 0x4e, 0x5a, 0x48, 0x91, 0x4c, 0x5a, 0x81, 0x28, 0x81, 0x4c,
    0x5a, 0x18, 0x91, 0x50, 0x5a, 0x18, 0x81, 0x50, 0x5a, 0x48, 0x91, 0x50, 0x5a, 0x30, 0x81, 0x50,
    0x5a, 0x00, 0x91, 0x4e, 0x5a, 0x30, 0x81, 0x4e, 0x5a, 0x00, 0x91, 0x4c, 0x5a, 0x18, 0x81, 0x4c,
    0x5a, 0x48, 0x91, 0x4a, 0x5a, 0x18, 0x81, 0x4a, 0x5a, 0x48, 0x91, 0x4c, 0x5a, 0x81, 0x28, 0x81,
    0x4c, 0x5a, 0x81, 0x58, 0x91, 0x49, 0x5a, 0x30, 0x81, 0x49, 0x5a, 0x00, 0x91, 0x47, 0x5a, 0x30,
    0x81, 0x47, 0x5a, 0x00, 0x91, 0x49, 0x5a, 0x18, 0x81, 0x49, 0x5a, 0x48, 0x91, 0x49, 0x5a, 0x18,
    0x81, 0x49, 0x5a, 0x48, 0x91, 0x47, 0x5a, 0x30, 0x81, 0x47, 0x5a, 0x00, 0x91, 0x49, 0x5a, 0x30,
    0x81, 0x49, 0x5a, 0x00, 0x91, 0x4a, 0x5a, 0x18, 0x81, 0x4a, 0x5a, 0x48, 0x91, 0x47, 0x5a, 0x18,
    0x81, 0x47, 0x5a, 0x48, 0x91, 0x49, 0x5a, 0x81, 0x28, 0x81, 0x49, 0x5a, 0x18, 0x91, 0x49, 0x5a,
    0x30, 0x81, 0x49, 0x5a, 0x00, 0x91, 0x47, 0x5a, 0x30, 0x81, 0x47, 0x5a, 0x00, 0x91, 0x49, 0x5a,
    0x30, 0x81, 0x49, 0x5a, 0x00, 0x91, 0x4a, 0x5a, 0x30, 0x81, 0x4a, 0x5a, 0x00, 0x91, 0x49, 0x5a,
    0x18, 0x81, 0x49, 0x5a, 0x48, 0x91, 0x45, 0x5a, 0x18, 0x81, 0x45, 0x5a, 0x48, 0x91, 0x45, 0x5a,
    0x18, 0x81, 0x45, 0x5a, 0x82, 0x68, 0x91, 0x49, 0x5a, 0x30, 0x81, 0x49, 0x5a, 0x00, 0x91, 0x47,
    0x5a, 0x30, 0x81, 0x47, 0x5a, 0x00, 0x91, 0x49, 0x5a, 0x18, 0x81, 0x49, 0x5a, 0x48, 0x91, 0x49,
    0x5a, 0x18, 0x81, 0x49, 0x5a, 0x48, 0x91, 0x49, 0x5a, 0x30, 0x81, 0x49, 0x5a, 0x00, 0x91, 0x47,
    0x5a, 0x30, 0x81, 0x47, 0x5a, 0x00, 0x91, 0x49, 0x5a, 0x18, 0x81, 0x49, 0x5a, 0x48, 0x91, 0x47,
    0x5a, 0x18, 0x81, 0x47, 0x5a, 0x48, 0x91, 0x49, 0x5a, 0x81, 0x04, 0x81, 0x49, 0x5a, 0x3c, 0x91,
    0x45, 0x5a, 0x30, 0x81, 0x45, 0x5a, 0x00, 0x91, 0x47, 0x5a, 0x30, 0x81, 0x47, 0x5a, 0x00, 0x91,
    0x49, 0x5a, 0x30, 0x81, 0x49, 0x5a, 0x00, 0x91, 0x4a, 0x5a, 0x30, 0x81, 0x4a, 0x5a, 0x00, 0x91,
    0x49, 0x5a, 0x18, 0x81, 0x49, 0x5a, 0x48, 0x91, 0x47, 0x5a, 0x18, 0x81, 0x47, 0x5a, 0x48, 0x91,
    0x49, 0x5a, 0x81, 0x28, 0x81, 0x49, 0x5a, 0x81, 0x58, 0x91, 0x49, 0x5a, 0x30, 0x81, 0x49, 0x5a,
    0x00, 0x91, 0x47, 0x5a, 0x30, 0x81, 0x47, 0x5a, 0x00, 0x91, 0x49, 0x5a, 0x18, 0x81, 0x49, 0x5a,
    0x48, 0x91, 0x49, 0x5a, 0x18, 0x81, 0x49, 0x5a, 0x48, 0x91, 0x4a, 0x5a, 0x30, 0x81, 0x4a, 0x5a,
    0x00, 0x91, 0x49, 0x5a, 0x30, 0x81, 0x49, 0x5a, 0x00, 0x91, 0x47, 0x5a, 0x18, 0x81, 0x47, 0x5a,
    0x48, 0x91, 0x45, 0x5a, 0x18, 0x81, 0x45, 0x5a, 0x48, 0x91, 0x49, 0x5a, 0x81, 0x28, 0x81, 0x49,
    0x5a, 0x18, 0x91, 0x49, 0x5a, 0x30, 0x81, 0x49, 0x5a, 0x00, 0x91, 0x47, 0x5a, 0x30, 0x81, 0x47,
    0x5a, 0x00, 0x91, 0x49, 0x5a, 0x30, 0x81, 0x49, 0x5a, 0x00, 0x91, 0x4a, 0x5a, 0x30, 0x81, 0x4a,
    0x5a, 0x00, 0x91, 0x49, 0x5a, 0x18, 0x81, 0x49, 0x5a, 0x48, 0x91, 0x45, 0x5a, 0x18, 0x81, 0x45,
    0x5a, 0x48, 0x91, 0x49, 0x5a, 0x81, 0x28, 0x81, 0x49, 0x5a, 0x81, 0x58, 0x91, 0x4c, 0x5a, 0x30,
    0x81, 0x4c, 0x5a, 0x00, 0x91, 0x4a, 0x5a, 0x30, 0x81, 0x4a, 0x5a, 0x00, 0x91, 0x4c, 0x5a, 0x18,
    0x81, 0x4c, 0x5a, 0x48, 0x91, 0x4c, 0x5a, 0x18, 0x81, 0x4c, 0x5a, 0x48, 0x91, 0x4c, 0x5a, 0x30,
    0x81, 0x4c, 0x5a, 0x00, 0x91, 0x4a, 0x5a, 0x30, 0x81, 0x4a, 0x5a, 0x00, 0x91, 0x4c, 0x5a, 0x18,
    0x81, 0x4c, 0x5a, 0x48, 0x91, 0x4e, 0x5a, 0x18, 0x81, 0x4e, 0x5a, 0x48, 0x91, 0x4c, 0x5a, 0x81,
    0x28, 0x81, 0x4c, 0x5a, 0x18, 0x91, 0x50, 0x5a, 0x18, 0x81, 0x50, 0x5a, 0x48, 0x91, 0x50, 0x5a,
    0x30, 0x81, 0x50, 0x5a, 0x00, 0x91, 0x4e, 0x5a, 0x30, 0x81, 0x4e, 0x5a, 0x00, 0x91, 0x4c, 0x5a,
    0x18, 0x81, 0x4c, 0x5a, 0x48, 0x91, 0x4a, 0x5a, 0x18, 0x81, 0x4a, 0x5a, 0x48, 0x91, 0x4c, 0x5a,
    0x81, 0x28, 0x81, 0x4c, 0x5a, 0x81, 0x58, 0x91, 0x49, 0x5a, 0x30, 0x81, 0x49, 0x5a, 0x00, 0x91,
    0x47, 0x5a, 0x30, 0x81, 0x47, 0x5a, 0x00, 0x91, 0x49, 0x5a, 0x18, 0x81, 0x49, 0x5a, 0x48, 0x91,
    0x49, 0x5a, 0x18, 0x81, 0x49, 0x5a, 0x48, 0x91, 0x47, 0x5a, 0x30, 0x81, 0x47, 0x5a, 0x00, 0x91,
    0x49, 0x5a, 0x30, 0x81, 0x49, 0x5a, 0x00, 0x91, 0x4a, 0x5a, 0x18, 0x81, 0x4a, 0x5a, 0x48, 0x91,
    0x47, 0x5a, 0x18, 0x81, 0x47, 0x5a, 0x48, 0x91, 0x49, 0x5a, 0x81, 0x28, 0x81, 0x49, 0x5a, 0x18,
    0x91, 0x49, 0x5a, 0x30, 0x81, 0x49, 0x5a, 0x00, 0x91, 0x47, 0x5a, 0x30, 0x81, 0x47, 0x5a, 0x00,
    0x91, 0x49, 0x5a, 0x30, 0x81, 0x49, 0x5a, 0x00, 0x91, 0x4a, 0x5a, 0x30, 0x81, 0x4a, 0x5a, 0x00,
    0x91, 0x49, 0x5a, 0x18, 0x81, 0x49, 0x5a, 0x48, 0x91, 0x45, 0x5a, 0x18, 0x81, 0x45, 0x5a, 0x48,
    0x91, 0x45, 0x5a, 0x18, 0x81, 0x45, 0x5a, 0x85, 0x68, 0xff, 0x2f, 0x00, 0x4d, 0x54, 0x72, 0x6b,
    0x00, 0x00, 0x05, 0x95, 0x00, 0xff, 0x03, 0x0e, 0x70, 0x69, 0x74, 0x63, 0x68, 0x33, 0x20, 0x63,
    0x68, 0x61, 0x6e, 0x6e, 0x65, 0x6c, 0x00, 0xb2, 0x65, 0x00, 0x00, 0xb2, 0x64, 0x00, 0x00, 0xb2,
    0x06, 0x18, 0x00, 0xb2, 0x26, 0x00, 0x00, 0xb2, 0x65, 0x7f, 0x00, 0xb2, 0x64, 0x7f, 0x00, 0xff,
    0x04, 0x0c, 0x49, 0x6e, 0x73, 0x74, 0x72, 0x75, 0x6d, 0x65, 0x6e, 0x74, 0x20, 0x31, 0x00, 0xc2,
    0x34, 0x00, 0xb2, 0x07, 0x5c, 0x00, 0xb2, 0x0a, 0x40, 0x00, 0x92, 0x51, 0x5a, 0x18, 0x82, 0x51,
    0x5a, 0x48, 0x92, 0x4c, 0x5a, 0x30, 0x82, 0x4c, 0x5a, 0x00, 0x92, 0x4a, 0x5a, 0x30, 0x82, 0x4a,
    0x5a, 0x00, 0x92, 0x49, 0x5a, 0x81, 0x00, 0x82, 0x49, 0x5a, 0x10, 0x92, 0x49, 0x5a, 0x30, 0x82,
    0x49, 0x5a, 0x00, 0x92, 0x4a, 0x5a, 0x30, 0x82, 0x4a, 0x5a, 0x00, 0x92, 0x4c, 0x5a, 0x30, 0x82,
    0x4c, 0x5a, 0x00, 0x92, 0x4e, 0x5a, 0x30, 0x82, 0x4e, 0x5a, 0x00, 0x92, 0x50, 0x5a, 0x30, 0x82,
    0x50, 0x5a, 0x00, 0x92, 0x4c, 0x5a, 0x81, 0x28, 0x82, 0x4c, 0x5a, 0x18, 0x92, 0x4e, 0x5a, 0x18,
    0x82, 0x4e, 0x5a, 0x48, 0x92, 0x4c, 0x5a, 0x30, 0x82, 0x4c, 0x5a, 0x00, 0x92, 0x4a, 0x5a, 0x30,
    0x82, 0x4a, 0x5a, 0x00, 0x92, 0x49, 0x5a, 0x18, 0x82, 0x49, 0x5a, 0x48, 0x92, 0x49, 0x5a, 0x18,
    0x82, 0x49, 0x5a, 0x48, 0x92, 0x47, 0x5a, 0x18, 0x82, 0x47, 0x5a, 0x48, 0x92, 0x49, 0x5a, 0x18,
    0x82, 0x49, 0x5a, 0x48, 0x92, 0x4a, 0x5a, 0x81, 0x28, 0x82, 0x4a, 0x5a, 0x18, 0x92, 0x51, 0x5a,
    0x18, 0x82, 0x51, 0x5a, 0x48, 0x92, 0x4c, 0x5a, 0x30, 0x82, 0x4c, 0x5a, 0x00, 0x92, 0x4a, 0x5a,
    0x30, 0x82, 0x4a, 0x5a, 0x00, 0x92, 0x49, 0x5a, 0x81, 0x04, 0x82, 0x49, 0x5a, 0x3c, 0x92, 0x49,
    0x5a, 0x30, 0x82, 0x49, 0x5a, 0x00, 0x92, 0x4a, 0x5a, 0x30, 0x82, 0x4a, 0x5a, 0x00, 0x92, 0x4c,
    0x5a, 0x30, 0x82, 0x4c, 0x5a, 0x00, 0x92, 0x4e, 0x5a, 0x30, 0x82, 0x4e, 0x5a, 0x00, 0x92, 0x4a,
    0x5a, 0x81, 0x28, 0x82, 0x4a, 0x5a, 0x18, 0x92, 0x4e, 0x5a, 0x30, 0x82, 0x4e, 0x5a, 0x00, 0x92,
    0x4c, 0x5a, 0x30, 0x82, 0x4c, 0x5a, 0x00, 0x92, 0x4a, 0x5a, 0x30, 0x82, 0x4a, 0x5a, 0x00, 0x92,
    0x49, 0x5a, 0x30, 0x82, 0x49, 0x5a, 0x00, 0x92, 0x47, 0x5a, 0x30, 0x82, 0x47, 0x5a, 0x00, 0x92,
    0x49, 0x5a, 0x30, 0x82, 0x49, 0x5a, 0x00, 0x92, 0x4a, 0x5a, 0x30, 0x82, 0x4a, 0x5a, 0x00, 0x92,
    0x4e, 0x5a, 0x30, 0x82, 0x4e, 0x5a, 0x00, 0x92, 0x4c, 0x5a, 0x30, 0x82, 0x4c, 0x5a, 0x00, 0x92,
    0x4a, 0x5a, 0x30, 0x82, 0x4a, 0x5a, 0x00, 0x92, 0x49, 0x5a, 0x30, 0x82, 0x49, 0x5a, 0x00, 0x92,
    0x47, 0x5a, 0x30, 0x82, 0x47, 0x5a, 0x00, 0x92, 0x45, 0x5a, 0x81, 0x28, 0x82, 0x45, 0x5a, 0x18,
    0x92, 0x49, 0x5a, 0x30, 0x82, 0x49, 0x5a, 0x00, 0x92, 0x47, 0x5a, 0x30, 0x82, 0x47, 0x5a, 0x00,
    0x92, 0x49, 0x5a, 0x18, 0x82, 0x49, 0x5a, 0x48, 0x92, 0x49, 0x5a, 0x18, 0x82, 0x49, 0x5a, 0x48,
    0x92, 0x49, 0x5a, 0x30, 0x82, 0x49, 0x5a, 0x00, 0x92, 0x47, 0x5a, 0x30, 0x82, 0x47, 0x5a, 0x00,
    0x92, 0x49, 0x5a, 0x18, 0x82, 0x49, 0x5a, 0x48, 0x92, 0x47, 0x5a, 0x18, 0x82, 0x47, 0x5a, 0x48,
    0x92, 0x49, 0x5a, 0x81, 0x04, 0x82, 0x49, 0x5a, 0x3c, 0x92, 0x45, 0x5a, 0x30, 0x82, 0x45, 0x5a,
    0x00, 0x92, 0x47, 0x5a, 0x30, 0x82, 0x47, 0x5a, 0x00, 0x92, 0x49, 0x5a, 0x30, 0x82, 0x49, 0x5a,
    0x00, 0x92, 0x4a, 0x5a, 0x30, 0x82, 0x4a, 0x5a, 0x00, 0x92, 0x49, 0x5a, 0x18, 0x82, 0x49, 0x5a,
    0x48, 0x92, 0x47, 0x5a, 0x18, 0x82, 0x47, 0x5a, 0x48, 0x92, 0x49, 0x5a, 0x81, 0x28, 0x82, 0x49,
    0x5a, 0x81, 0x58, 0x92, 0x49, 0x5a, 0x30, 0x82, 0x49, 0x5a, 0x00, 0x92, 0x47, 0x5a, 0x30, 0x82,
    0x47, 0x5a, 0x00, 0x92, 0x49, 0x5a, 0x18, 0x82, 0x49, 0x5a, 0x48, 0x92, 0x49, 0x5a, 0x18, 0x82,
    0x49, 0x5a, 0x48, 0x92, 0x4a, 0x5a, 0x30, 0x82, 0x4a, 0x5a, 0x00, 0x92, 0x49, 0x5a, 0x30, 0x82,
    0x49, 0x5a, 0x00, 0x92, 0x47, 0x5a, 0x18, 0x82, 0x47, 0x5a, 0x48, 0x92, 0x45, 0x5a, 0x18, 0x82,
    0x45, 0x5a, 0x48, 0x92, 0x49, 0x5a, 0x81, 0x28, 0x82, 0x49, 0x5a, 0x18, 0x92, 0x49, 0x5a, 0x30,
    0x82, 0x49, 0x5a, 0x00, 0x92, 0x47, 0x5a, 0x30, 0x82, 0x47, 0x5a, 0x00, 0x92, 0x49, 0x5a, 0x30,
    0x82, 0x49, 0x5a, 0x00, 0x92, 0x4a, 0x5a, 0x30, 0x82, 0x4a, 0x5a, 0x00, 0x92, 0x49, 0x5a, 0x18,
    0x82, 0x49, 0x5a, 0x48, 0x92, 0x45, 0x5a, 0x18, 0x82, 0x45, 0x5a, 0x48, 0x92, 0x49, 0x5a, 0x81,
    0x28, 0x82, 0x49, 0x5a, 0x81, 0x58, 0x92, 0x4c, 0x5a, 0x30, 0x82, 0x4c, 0x5a, 0x00, 0x92, 0x4a,
    0x5a, 0x30, 0x82, 0x4a, 0x5a, 0x00, 0x92, 0x4c, 0x5a, 0x18, 0x82, 0x4c, 0x5a, 0x48, 0x92, 0x4c,
    0x5a, 0x18, 0x82, 0x4c, 0x5a, 0x48, 0x92, 0x4c, 0x5a, 0x30, 0x82, 0x4c, 0x5a, 0x00, 0x92, 0x4a,
    0x5a, 0x30, 0x82, 0x4a, 0x5a, 0x00, 0x92, 0x4c, 0x5a, 0x18, 0x82, 0x4c, 0x5a, 0x48, 0x92, 0x4e,
    0x5a, 0x18, 0x82, 0x4e, 0x5a, 0x48, 0x92, 0x4c, 0x5a, 0x81, 0x28, 0x82, 0x4c, 0x5a, 0x18, 0x92,
    0x50, 0x5a, 0x18, 0x82, 0x50, 0x5a, 0x48, 0x92, 0x50, 0x5a, 0x30, 0x82, 0x50, 0x5a, 0x00, 0x92,
    0x4e, 0x5a, 0x30, 0x82, 0x4e, 0x5a, 0x00, 0x92, 0x4c, 0x5a, 0x18, 0x82, 0x4c, 0x5a, 0x48, 0x92,
    0x4a, 0x5a, 0x18, 0x82, 0x4a, 0x5a, 0x48, 0x92, 0x4c, 0x5a, 0x81, 0x28, 0x82, 0x4c, 0x5a, 0x81,
    0x58, 0x92, 0x49, 0x5a, 0x30, 0x82, 0x49, 0x5a, 0x00, 0x92, 0x47, 0x5a, 0x30, 0x82, 0x47, 0x5a,
    0x00, 0x92, 0x49, 0x5a, 0x18, 0x82, 0x49, 0x5a, 0x48, 0x92, 0x49, 0x5a, 0x18, 0x82, 0x49, 0x5a,
    0x48, 0x92, 0x47, 0x5a, 0x30, 0x82, 0x47, 0x5a, 0x00, 0x92, 0x49, 0x5a, 0x30, 0x82, 0x49, 0x5a,
    0x00, 0x92, 0x4a, 0x5a, 0x18, 0x82, 0x4a, 0x5a, 0x48, 0x92, 0x47, 0x5a, 0x18, 0x82, 0x47, 0x5a,
    0x48, 0x92, 0x49, 0x5a, 0x81, 0x28, 0x82, 0x49, 0x5a, 0x18, 0x92, 0x49, 0x5a, 0x30, 0x82, 0x49,
    0x5a, 0x00, 0x92, 0x47, 0x5a, 0x30, 0x82, 0x47, 0x5a, 0x00, 0x92, 0x49, 0x5a, 0x30, 0x82, 0x49,
    0x5a, 0x00, 0x92, 0x4a, 0x5a, 0x30, 0x82, 0x4a, 0x5a, 0x00, 0x92, 0x49, 0x5a, 0x18, 0x82, 0x49,
    0x5a, 0x48, 0x92, 0x45, 0x5a, 0x18, 0x82, 0x45, 0x5a, 0x48, 0x92, 0x45, 0x5a, 0x18, 0x82, 0x45,
    0x5a, 0x82, 0x68, 0x92, 0x49, 0x5a, 0x30, 0x82, 0x49, 0x5a, 0x00, 0x92, 0x47, 0x5a, 0x30, 0x82,
    0x47, 0x5a, 0x00, 0x92, 0x49, 0x5a, 0x18, 0x82, 0x49, 0x5a, 0x48, 0x92, 0x49, 0x5a, 0x18, 0x82,
    0x49, 0x5a, 0x48, 0x92, 0x49, 0x5a, 0x30, 0x82, 0x49, 0x5a, 0x00, 0x92, 0x47, 0x5a, 0x30, 0x82,
    0x47, 0x5a, 0x00, 0x92, 0x49, 0x5a, 0x18, 0x82, 0x49, 0x5a, 0x48, 0x92, 0x47, 0x5a, 0x18, 0x82,
    0x47, 0x5a, 0x48, 0x92, 0x49, 0x5a, 0x81, 0x04, 0x82, 0x49, 0x5a, 0x3c, 0x92, 0x45, 0x5a, 0x30,
    0x82, 0x45, 0x5a, 0x00, 0x92, 0x47, 0x5a, 0x30, 0x82, 0x47, 0x5a, 0x00, 0x92, 0x49, 0x5a, 0x30,
    0x82, 0x49, 0x5a, 0x00, 0x92, 0x4a, 0x5a, 0x30, 0x82, 0x4a, 0x5a, 0x00, 0x92, 0x49, 0x5a, 0x18,
    0x82, 0x49, 0x5a, 0x48, 0x92, 0x47, 0x5a, 0x18, 0x82, 0x47, 0x5a, 0x48, 0x92, 0x49, 0x5a, 0x81,
    0x28, 0x82, 0x49, 0x5a, 0x81, 0x58, 0x92, 0x49, 0x5a, 0x30, 0x82, 0x49, 0x5a, 0x00, 0x92, 0x47,
    0x5a, 0x30, 0x82, 0x47, 0x5a, 0x00, 0x92, 0x49, 0x5a, 0x18, 0x82, 0x49, 0x5a, 0x48, 0x92, 0x49,
    0x5a, 0x18, 0x82, 0x49, 0x5a, 0x48, 0x92, 0x4a, 0x5a, 0x30, 0x82, 0x4a, 0x5a, 0x00, 0x92, 0x49,
    0x5a, 0x30, 0x82, 0x49, 0x5a, 0x00, 0x92, 0x47, 0x5a, 0x18, 0x82, 0x47, 0x5a, 0x48, 0x92, 0x45,
    0x5a, 0x18, 0x82, 0x45, 0x5a, 0x48, 0x92, 0x49, 0x5a, 0x81, 0x28, 0x82, 0x49, 0x5a, 0x18, 0x92,
    0x49, 0x5a, 0x30, 0x82, 0x49, 0x5a, 0x00, 0x92, 0x47, 0x5a, 0x30, 0x82, 0x47, 0x5a, 0x00, 0x92,
    0x49, 0x5a, 0x30, 0x82, 0x49, 0x5a, 0x00, 0x92, 0x4a, 0x5a, 0x30, 0x82, 0x4a, 0x5a, 0x00, 0x92,
    0x49, 0x5a, 0x18, 0x82, 0x49, 0x5a, 0x48, 0x92, 0x45, 0x5a, 0x18, 0x82, 0x45, 0x5a, 0x48, 0x92,
    0x49, 0x5a, 0x81, 0x28, 0x82, 0x49, 0x5a, 0x81, 0x58, 0x92, 0x4c, 0x5a, 0x30, 0x82, 0x4c, 0x5a,
    0x00, 0x92, 0x4a, 0x5a, 0x30, 0x82, 0x4a, 0x5a, 0x00, 0x92, 0x4c, 0x5a, 0x18, 0x82, 0x4c, 0x5a,
    0x48, 0x92, 0x4c, 0x5a, 0x18, 0x82, 0x4c, 0x5a, 0x48, 0x92, 0x4c, 0x5a, 0x30, 0x82, 0x4c, 0x5a,
    0x00, 0x92, 0x4a, 0x5a, 0x30, 0x82, 0x4a, 0x5a, 0x00, 0x92, 0x4c, 0x5a, 0x18, 0x82, 0x4c, 0x5a,
    0x48, 0x92, 0x4e, 0x5a, 0x18, 0x82, 0x4e, 0x5a, 0x48, 0x92, 0x4c, 0x5a, 0x81, 0x28, 0x82, 0x4c,
    0x5a, 0x18, 0x92, 0x50, 0x5a, 0x18, 0x82, 0x50, 0x5a, 0x48, 0x92, 0x50, 0x5a, 0x30, 0x82, 0x50,
    0x5a, 0x00, 0x92, 0x4e, 0x5a, 0x30, 0x82, 0x4e, 0x5a, 0x00, 0x92, 0x4c, 0x5a, 0x18, 0x82, 0x4c,
    0x5a, 0x48, 0x92, 0x4a, 0x5a, 0x18, 0x82, 0x4a, 0x5a, 0x48, 0x92, 0x4c, 0x5a, 0x81, 0x28, 0x82,
    0x4c, 0x5a, 0x81, 0x58, 0x92, 0x49, 0x5a, 0x30, 0x82, 0x49, 0x5a, 0x00, 0x92, 0x47, 0x5a, 0x30,
    0x82, 0x47, 0x5a, 0x00, 0x92, 0x49, 0x5a, 0x18, 0x82, 0x49, 0x5a, 0x48, 0x92, 0x49, 0x5a, 0x18,
    0x82, 0x49, 0x5a, 0x48, 0x92, 0x47, 0x5a, 0x30, 0x82, 0x47, 0x5a, 0x00, 0x92, 0x49, 0x5a, 0x30,
    0x82, 0x49, 0x5a, 0x00, 0x92, 0x4a, 0x5a, 0x18, 0x82, 0x4a, 0x5a, 0x48, 0x92, 0x47, 0x5a, 0x18,
    0x82, 0x47, 0x5a, 0x48, 0x92, 0x49, 0x5a, 0x81, 0x28, 0x82, 0x49, 0x5a, 0x18, 0x92, 0x49, 0x5a,
    0x30, 0x82, 0x49, 0x5a, 0x00, 0x92, 0x47, 0x5a, 0x30, 0x82, 0x47, 0x5a, 0x00, 0x92, 0x49, 0x5a,
    0x30, 0x82, 0x49, 0x5a, 0x00, 0x92, 0x4a, 0x5a, 0x30, 0x82, 0x4a, 0x5a, 0x00, 0x92, 0x49, 0x5a,
    0x18, 0x82, 0x49, 0x5a, 0x48, 0x92, 0x45, 0x5a, 0x18, 0x82, 0x45, 0x5a, 0x48, 0x92, 0x45, 0x5a,
    0x18, 0x82, 0x45, 0x5a, 0x85, 0x68, 0xff, 0x2f, 0x00, 0x4d, 0x54, 0x72, 0x6b, 0x00, 0x00, 0x05,
    0x95, 0x00, 0xff, 0x03, 0x0e, 0x70, 0x69, 0x74, 0x63, 0x68, 0x34, 0x20, 0x63, 0x68, 0x61, 0x6e,
    0x6e, 0x65, 0x6c, 0x00, 0xb3, 0x65, 0x00, 0x00, 0xb3, 0x64, 0x00, 0x00, 0xb3, 0x06, 0x18, 0x00,
    0xb3, 0x26, 0x00, 0x00, 0xb3, 0x65, 0x7f, 0x00, 0xb3, 0x64, 0x7f, 0x00, 0xff, 0x04, 0x0c, 0x49,
    0x6e, 0x73, 0x74, 0x72, 0x75, 0x6d, 0x65, 0x6e, 0x74, 0x20, 0x31, 0x00, 0xc3, 0x21, 0x00, 0xb3,
    0x07, 0x5c, 0x00, 0xb3, 0x0a, 0x40, 0x00, 0x93, 0x51, 0x5a, 0x18, 0x83, 0x51, 0x5a, 0x48, 0x93,
    0x4c, 0x5a, 0x30, 0x83, 0x4c, 0x5a, 0x00, 0x93, 0x4a, 0x5a, 0x30, 0x83, 0x4a, 0x5a, 0x00, 0x93,
    0x49, 0x5a, 0x81, 0x00, 0x83, 0x49, 0x5a, 0x10, 0x93, 0x49, 0x5a, 0x30, 0x83, 0x49, 0x5a, 0x00,
    0x93, 0x4a, 0x5a, 0x30, 0x83, 0x4a, 0x5a, 0x00, 0x93, 0x4c, 0x5a, 0x30, 0x83, 0x4c, 0x5a, 0x00,
    0x93, 0x4e, 0x5a, 0x30, 0x83, 0x4e, 0x5a, 0x00, 0x93, 0x50, 0x5a, 0x30, 0x83, 0x50, 0x5a, 0x00,
    0x93, 0x4c, 0x5a, 0x81, 0x28, 0x83, 0x4c, 0x5a, 0x18, 0x93, 0x4e, 0x5a, 0x18, 0x83, 0x4e, 0x5a,
    0x48, 0x93, 0x4c, 0x5a, 0x30, 0x83, 0x4c, 0x5a, 0x00, 0x93, 0x4a, 0x5a, 0x30, 0x83, 0x4a, 0x5a,
    0x00, 0x93, 0x49, 0x5a, 0x18, 0x83, 0x49, 0x5a, 0x48, 0x93, 0x49, 0x5a, 0x18, 0x83, 0x49, 0x5a,
    0x48, 0x93, 0x47, 0x5a, 0x18, 0x83, 0x47, 0x5a, 0x48, 0x93, 0x49, 0x5a, 0x18, 0x83, 0x49, 0x5a,
    0x48, 0x93, 0x4a, 0x5a, 0x81, 0x28, 0x83, 0x4a, 0x5a, 0x18, 0x93, 0x51, 0x5a, 0x18, 0x83, 0x51,
    0x5a, 0x48, 0x93, 0x4c, 0x5a, 0x30, 0x83, 0x4c, 0x5a, 0x00, 0x93, 0x4a, 0x5a, 0x30, 0x83, 0x4a,
    0x5a, 0x00, 0x93, 0x49, 0x5a, 0x81, 0x04, 0x83, 0x49, 0x5a, 0x3c, 0x93, 0x49, 0x5a, 0x30, 0x83,
    0x49, 0x5a, 0x00, 0x93, 0x4a, 0x5a, 0x30, 0x83, 0x4a, 0x5a, 0x00, 0x93, 0x4c, 0x5a, 0x30, 0x83,
    0x4c, 0x5a, 0x00, 0x93, 0x4e, 0x5a, 0x30, 0x83, 0x4e, 0x5a, 0x00, 0x93, 0x4a, 0x5a, 0x81, 0x28,
    0x83, 0x4a, 0x5a, 0x18, 0x93, 0x4e, 0x5a, 0x30, 0x83, 0x4e, 0x5a, 0x00, 0x93, 0x4c, 0x5a, 0x30,
    0x83, 0x4c, 0x5a, 0x00, 0x93, 0x4a, 0x5a, 0x30, 0x83, 0x4a, 0x5a, 0x00, 0x93, 0x49, 0x5a, 0x30,
    0x83, 0x49, 0x5a, 0x00, 0x93, 0x47, 0x5a, 0x30, 0x83, 0x47, 0x5a, 0x00, 0x93, 0x49, 0x5a, 0x30,
    0x83, 0x49, 0x5a, 0x00, 0x93, 0x4a, 0x5a, 0x30, 0x83, 0x4a, 0x5a, 0x00, 0x93, 0x4e, 0x5a, 0x30,
    0x83, 0x4e, 0x5a, 0x00, 0x93, 0x4c, 0x5a, 0x30, 0x83, 0x4c, 0x5a, 0x00, 0x93, 0x4a, 0x5a, 0x30,
    0x83, 0x4a, 0x5a, 0x00, 0x93, 0x49, 0x5a, 0x30, 0x83, 0x49, 0x5a, 0x00, 0x93, 0x47, 0x5a, 0x30,
    0x83, 0x47, 0x5a, 0x00, 0x93, 0x45, 0x5a, 0x81, 0x28, 0x83, 0x45, 0x5a, 0x18, 0x93, 0x49, 0x5a,
    0x30, 0x83, 0x49, 0x5a, 0x00, 0x93, 0x47, 0x5a, 0x30, 0x83, 0x47, 0x5a, 0x00, 0x93, 0x49, 0x5a,
    0x18, 0x83, 0x49, 0x5a, 0x48, 0x93, 0x49, 0x5a, 0x18, 0x83, 0x49, 0x5a, 0x48, 0x93, 0x49, 0x5a,
    0x30, 0x83, 0x49, 0x5a, 0x00, 0x93, 0x47, 0x5a, 0x30, 0x83, 0x47, 0x5a, 0x00, 0x93, 0x49, 0x5a,
    0x18, 0x83, 0x49, 0x5a, 0x48, 0x93, 0x47, 0x5a, 0x18, 0x83, 0x47, 0x5a, 0x48, 0x93, 0x49, 0x5a,
    0x81, 0x04, 0x83, 0x49, 0x5a, 0x3c, 0x93, 0x45, 0x5a, 0x30, 0x83, 0x45, 0x5a, 0x00, 0x93, 0x47,
    0x5a, 0x30, 0x83, 0x47, 0x5a, 0x00, 0x93, 0x49, 0x5a, 0x30, 0x83, 0x49, 0x5a, 0x00, 0x93, 0x4a,
    0x5a, 0x30, 0x83, 0x4a, 0x5a, 0x00, 0x93, 0x49, 0x5a, 0x18, 0x83, 0x49, 0x5a, 0x48, 0x93, 0x47,
    0x5a, 0x18, 0x83, 0x47, 0x5a, 0x48, 0x93, 0x49, 0x5a, 0x81, 0x28, 0x83, 0x49, 0x5a, 0x81, 0x58,
    0x93, 0x49, 0x5a, 0x30, 0x83, 0x49, 0x5a, 0x00, 0x93, 0x47, 0x5a, 0x30, 0x83, 0x47, 0x5a, 0x00,
    0x93, 0x49, 0x5a, 0x18, 0x83, 0x49, 0x5a, 0x48, 0x93, 0x49, 0x5a, 0x18, 0x83, 0x49, 0x5a, 0x48,
    0x93, 0x4a, 0x5a, 0x30, 0x83, 0x4a, 0x5a, 0x00, 0x93, 0x49, 0x5a, 0x30, 0x83, 0x49, 0x5a, 0x00,
    0x93, 0x47, 0x5a, 0x18, 0x83, 0x47, 0x5a, 0x48, 0x93, 0x45, 0x5a, 0x18, 0x83, 0x45, 0x5a, 0x48,
    0x93, 0x49, 0x5a, 0x81, 0x28, 0x83, 0x49, 0x5a, 0x18, 0x93, 0x49, 0x5a, 0x30, 0x83, 0x49, 0x5a,
    0x00, 0x93, 0x47, 0x5a, 0x30, 0x83, 0x47, 0x5a, 0x00, 0x93, 0x49, 0x5a, 0x30, 0x83, 0x49, 0x5a,
    0x00, 0x93, 0x4a, 0x5a, 0x30, 0x83, 0x4a, 0x5a, 0x00, 0x93, 0x49, 0x5a, 0x18, 0x83, 0x49, 0x5a,
    0x48, 0x93, 0x45, 0x5a, 0x18, 0x83, 0x45, 0x5a, 0x48, 0x93, 0x49, 0x5a, 0x81, 0x28, 0x83, 0x49,
    0x5a, 0x81, 0x58, 0x93, 0x4c, 0x5a, 0x30, 0x83, 0x4c, 0x5a, 0x00, 0x93, 0x4a, 0x5a, 0x30, 0x83,
    0x4a, 0x5a, 0x00, 0x93, 0x4c, 0x5a, 0x18, 0x83, 0x4c, 0x5a, 0x48, 0x93, 0x4c, 0x5a, 0x18, 0x83,
    0x4c, 0x5a, 0x48, 0x93, 0x4c, 0x5a, 0x30, 0x83, 0x4c, 0x5a, 0x00, 0x93, 0x4a, 0x5a, 0x30, 0x83,
    0x4a, 0x5a, 0x00, 0x93, 0x4c, 0x5a, 0x18, 0x83, 0x4c, 0x5a, 0x48, 0x93, 0x4e, 0x5a, 0x18, 0x83,
    0x4e, 0x5a, 0x48, 0x93, 0x4c, 0x5a, 0x81, 0x28, 0x83, 0x4c, 0x5a, 0x18, 0x93, 0x50, 0x5a, 0x18,
    0x83, 0x50, 0x5a, 0x48, 0x93, 0x50, 0x5a, 0x30, 0x83, 0x50, 0x5a, 0x00, 0x93, 0x4e, 0x5a, 0x30,
    0x83, 0x4e, 0x5a, 0x00, 0x93, 0x4c, 0x5a, 0x18, 0x83, 0x4c, 0x5a, 0x48, 0x93, 0x4a, 0x5a, 0x18,
    0x83, 0x4a, 0x5a, 0x48, 0x93, 0x4c, 0x5a, 0x81, 0x28, 0x83, 0x4c, 0x5a, 0x81, 0x58, 0x93, 0x49,
    0x5a, 0x30, 0x83, 0x49, 0x5a, 0x00, 0x93, 0x47, 0x5a, 0x30, 0x83, 0x47, 0x5a, 0x00, 0x93, 0x49,
    0x5a, 0x18, 0x83, 0x49, 0x5a, 0x48, 0x93, 0x49, 0x5a, 0x18, 0x83, 0x49, 0x5a, 0x48, 0x93, 0x47,
    0x5a, 0x30, 0x83, 0x47, 0x5a, 0x00, 0x93, 0x49, 0x5a, 0x30, 0x83, 0x49, 0x5a, 0x00, 0x93, 0x4a,
    0x5a, 0x18, 0x83, 0x4a, 0x5a, 0x48, 0x93, 0x47, 0x5a, 0x18, 0x83, 0x47, 0x5a, 0x48, 0x93, 0x49,
    0x5a, 0x81, 0x28, 0x83, 0x49, 0x5a, 0x18, 0x93, 0x49, 0x5a, 0x30, 0x83, 0x49, 0x5a, 0x00, 0x93,
    0x47, 0x5a, 0x30, 0x83, 0x47, 0x5a, 0x00, 0x93, 0x49, 0x5a, 0x30, 0x83, 0x49, 0x5a, 0x00, 0x93,
    0x4a, 0x5a, 0x30, 0x83, 0x4a, 0x5a, 0x00, 0x93, 0x49, 0x5a, 0x18, 0x83, 0x49, 0x5a, 0x48, 0x93,
    0x45, 0x5a, 0x18, 0x83, 0x45, 0x5a, 0x48, 0x93, 0x45, 0x5a, 0x18, 0x83, 0x45, 0x5a, 0x82, 0x68,
    0x93, 0x49, 0x5a, 0x30, 0x83, 0x49, 0x5a, 0x00, 0x93, 0x47, 0x5a, 0x30, 0x83, 0x47, 0x5a, 0x00,
    0x93, 0x49, 0x5a, 0x18, 0x83, 0x49, 0x5a, 0x48, 0x93, 0x49, 0x5a, 0x18, 0x83, 0x49, 0x5a, 0x48,
    0x93, 0x49, 0x5a, 0x30, 0x83, 0x49, 0x5a, 0x00, 0x93, 0x47, 0x5a, 0x30, 0x83, 0x47, 0x5a, 0x00,
    0x93, 0x49, 0x5a, 0x18, 0x83, 0x49, 0x5a, 0x48, 0x93, 0x47, 0x5a, 0x18, 0x83, 0x47, 0x5a, 0x48,
    0x93, 0x49, 0x5a, 0x81, 0x04, 0x83, 0x49, 0x5a, 0x3c, 0x93, 0x45, 0x5a, 0x30, 0x83, 0x45, 0x5a,
    0x00, 0x93, 0x47, 0x5a, 0x30, 0x83, 0x47, 0x5a, 0x00, 0x93, 0x49, 0x5a, 0x30, 0x83, 0x49, 0x5a,
    0x00, 0x93, 0x4a, 0x5a, 0x30, 0x83, 0x4a, 0x5a, 0x00, 0x93, 0x49, 0x5a, 0x18, 0x83, 0x49, 0x5a,
    0x48, 0x93, 0x47, 0x5a, 0x18, 0x83, 0x47, 0x5a, 0x48, 0x93, 0x49, 0x5a, 0x81, 0x28, 0x83, 0x49,
    0x5a, 0x81, 0x58, 0x93, 0x49, 0x5a, 0x30, 0x83, 0x49, 0x5a, 0x00, 0x93, 0x47, 0x5a, 0x30, 0x83,
    0x47, 0x5a, 0x00, 0x93, 0x49, 0x5a, 0x18, 0x83, 0x49, 0x5a, 0x48, 0x93, 0x49, 0x5a, 0x18, 0x83,
    0x49, 0x5a, 0x48, 0x93, 0x4a, 0x5a, 0x30, 0x83, 0x4a, 0x5a, 0x00, 0x93, 0x49, 0x5a, 0x30, 0x83,
    0x49, 0x5a, 0x00, 0x93, 0x47, 0x5a, 0x18, 0x83, 0x47, 0x5a, 0x48, 0x93, 0x45, 0x5a, 0x18, 0x83,
    0x45, 0x5a, 0x48, 0x93, 0x49, 0x5a, 0x81, 0x28, 0x83, 0x49, 0x5a, 0x18, 0x93, 0x49, 0x5a, 0x30,
    0x83, 0x49, 0x5a, 0x00, 0x93, 0x47, 0x5a, 0x30, 0x83, 0x47, 0x5a, 0x00, 0x93, 0x49, 0x5a, 0x30,
    0x83, 0x49, 0x5a, 0x00, 0x93, 0x4a, 0x5a, 0x30, 0x83, 0x4a, 0x5a, 0x00, 0x93, 0x49, 0x5a, 0x18,
    0x83, 0x49, 0x5a, 0x48, 0x93, 0x45, 0x5a, 0x18, 0x83, 0x45, 0x5a, 0x48, 0x93, 0x49, 0x5a, 0x81,
    0x28, 0x83, 0x49, 0x5a, 0x81, 0x58, 0x93, 0x4c, 0x5a, 0x30, 0x83, 0x4c, 0x5a, 0x00, 0x93, 0x4a,
    0x5a, 0x30, 0x83, 0x4a, 0x5a, 0x00, 0x93, 0x4c, 0x5a, 0x18, 0x83, 0x4c, 0x5a, 0x48, 0x93, 0x4c,
    0x5a, 0x18, 0x83, 0x4c, 0x5a, 0x48, 0x93, 0x4c, 0x5a, 0x30, 0x83, 0x4c, 0x5a, 0x00, 0x93, 0x4a,
    0x5a, 0x30, 0x83, 0x4a, 0x5a, 0x00, 0x93, 0x4c, 0x5a, 0x18, 0x83, 0x4c, 0x5a, 0x48, 0x93, 0x4e,
    0x5a, 0x18, 0x83, 0x4e, 0x5a, 0x48, 0x93, 0x4c, 0x5a, 0x81, 0x28, 0x83, 0x4c, 0x5a, 0x18, 0x93,
    0x50, 0x5a, 0x18, 0x83, 0x50, 0x5a, 0x48, 0x93, 0x50, 0x5a, 0x30, 0x83, 0x50, 0x5a, 0x00, 0x93,
    0x4e, 0x5a, 0x30, 0x83, 0x4e, 0x5a, 0x00, 0x93, 0x4c, 0x5a, 0x18, 0x83, 0x4c, 0x5a, 0x48, 0x93,
    0x4a, 0x5a, 0x18, 0x83, 0x4a, 0x5a, 0x48, 0x93, 0x4c, 0x5a, 0x81, 0x28, 0x83, 0x4c, 0x5a, 0x81,
    0x58, 0x93, 0x49, 0x5a, 0x30, 0x83, 0x49, 0x5a, 0x00, 0x93, 0x47, 0x5a, 0x30, 0x83, 0x47, 0x5a,
    0x00, 0x93, 0x49, 0x5a, 0x18, 0x83, 0x49, 0x5a, 0x48, 0x93, 0x49, 0x5a, 0x18, 0x83, 0x49, 0x5a,
    0x48, 0x93, 0x47, 0x5a, 0x30, 0x83, 0x47, 0x5a, 0x00, 0x93, 0x49, 0x5a, 0x30, 0x83, 0x49, 0x5a,
    0x00, 0x93, 0x4a, 0x5a, 0x18, 0x83, 0x4a, 0x5a, 0x48, 0x93, 0x47, 0x5a, 0x18, 0x83, 0x47, 0x5a,
    0x48, 0x93, 0x49, 0x5a, 0x81, 0x28, 0x83, 0x49, 0x5a, 0x18, 0x93, 0x49, 0x5a, 0x30, 0x83, 0x49,
    0x5a, 0x00, 0x93, 0x47, 0x5a, 0x30, 0x83, 0x47, 0x5a, 0x00, 0x93, 0x49, 0x5a, 0x30, 0x83, 0x49,
    0x5a, 0x00, 0x93, 0x4a, 0x5a, 0x30, 0x83, 0x4a, 0x5a, 0x00, 0x93, 0x49, 0x5a, 0x18, 0x83, 0x49,
    0x5a, 0x48, 0x93, 0x45, 0x5a, 0x18, 0x83, 0x45, 0x5a, 0x48, 0x93, 0x45, 0x5a, 0x18, 0x83, 0x45,
    0x5a, 0x85, 0x68, 0xff, 0x2f, 0x00, 0x4d, 0x54, 0x72, 0x6b, 0x00, 0x00, 0x05, 0x95, 0x00, 0xff,
    0x03, 0x0e, 0x70, 0x69, 0x74, 0x63, 0x68, 0x35, 0x20, 0x63, 0x68, 0x61, 0x6e, 0x6e, 0x65, 0x6c,
    0x00, 0xb4, 0x65, 0x00, 0x00, 0xb4, 0x64, 0x00, 0x00, 0xb4, 0x06, 0x18, 0x00, 0xb4, 0x26, 0x00,
    0x00, 0xb4, 0x65, 0x7f, 0x00, 0xb4, 0x64, 0x7f, 0x00, 0xff, 0x04, 0x0c, 0x49, 0x6e, 0x73, 0x74,
    0x72, 0x75, 0x6d, 0x65, 0x6e, 0x74, 0x20, 0x31, 0x00, 0xc4, 0x1c, 0x00, 0xb4, 0x07, 0x5c, 0x00,
    0xb4, 0x0a, 0x40, 0x00, 0x94, 0x51, 0x5a, 0x18, 0x84, 0x51, 0x5a, 0x48, 0x94, 0x4c, 0x5a, 0x30,
    0x84, 0x4c, 0x5a, 0x00, 0x94, 0x4a, 0x5a, 0x30, 0x84, 0x4a, 0x5a, 0x00, 0x94, 0x49, 0x5a, 0x81,
    0x00, 0x84, 0x49, 0x5a, 0x10, 0x94, 0x49, 0x5a, 0x30, 0x84, 0x49, 0x5a, 0x00, 0x94, 0x4a, 0x5a,
    0x30, 0x84, 0x4a, 0x5a, 0x00, 0x94, 0x4c, 0x5a, 0x30, 0x84, 0x4c, 0x5a, 0x00, 0x94, 0x4e, 0x5a,
    0x30, 0x84, 0x4e, 0x5a, 0x00, 0x94, 0x50, 0x5a, 0x30, 0x84, 0x50, 0x5a, 0x00, 0x94, 0x4c, 0x5a,
    0x81, 0x28, 0x84, 0x4c, 0x5a, 0x18, 0x94, 0x4e, 0x5a, 0x18, 0x84, 0x4e, 0x5a, 0x48, 0x94, 0x4c,
    0x5a, 0x30, 0x84, 0x4c, 0x5a, 0x00, 0x94, 0x4a, 0x5a, 0x30, 0x84, 0x4a, 0x5a, 0x00, 0x94, 0x49,
    0x5a, 0x18, 0x84, 0x49, 0x5a, 0x48, 0x94, 0x49, 0x5a, 0x18, 0x84, 0x49, 0x5a, 0x48, 0x94, 0x47,
    0x5a, 0x18, 0x84, 0x47, 0x5a, 0x48, 0x94, 0x49, 0x5a, 0x18, 0x84, 0x49, 0x5a, 0x48, 0x94, 0x4a,
    0x5a, 0x81, 0x28, 0x84, 0x4a, 0x5a, 0x18, 0x94, 0x51, 0x5a, 0x18, 0x84, 0x51, 0x5a, 0x48, 0x94,
    0x4c, 0x5a, 0x30, 0x84, 0x4c, 0x5a, 0x00, 0x94, 0x4a, 0x5a, 0x30, 0x84, 0x4a, 0x5a, 0x00, 0x94,
    0x49, 0x5a, 0x81, 0x04, 0x84, 0x49, 0x5a, 0x3c, 0x94, 0x49, 0x5a, 0x30, 0x84, 0x49, 0x5a, 0x00,
    0x94, 0x4a, 0x5a, 0x30, 0x84, 0x4a, 0x5a, 0x00, 0x94, 0x4c, 0x5a, 0x30, 0x84, 0x4c, 0x5a, 0x00,
    0x94, 0x4e, 0x5a, 0x30, 0x84, 0x4e, 0x5a, 0x00, 0x94, 0x4a, 0x5a, 0x81, 0x28, 0x84, 0x4a, 0x5a,
    0x18, 0x94, 0x4e, 0x5a, 0x30, 0x84, 0x4e, 0x5a, 0x00, 0x94, 0x4c, 0x5a, 0x30, 0x84, 0x4c, 0x5a,
    0x00, 0x94, 0x4a, 0x5a, 0x30, 0x84, 0x4a, 0x5a, 0x00, 0x94, 0x49, 0x5a, 0x30, 0x84, 0x49, 0x5a,
    0x00, 0x94, 0x47, 0x5a, 0x30, 0x84, 0x47, 0x5a, 0x00, 0x94, 0x49, 0x5a, 0x30, 0x84, 0x49, 0x5a,
    0x00, 0x94, 0x4a, 0x5a, 0x30, 0x84, 0x4a, 0x5a, 0x00, 0x94, 0x4e, 0x5a, 0x30, 0x84, 0x4e, 0x5a,
    0x00, 0x94, 0x4c, 0x5a, 0x30, 0x84, 0x4c, 0x5a, 0x00, 0x94, 0x4a, 0x5a, 0x30, 0x84, 0x4a, 0x5a,
    0x00, 0x94, 0x49, 0x5a, 0x30, 0x84, 0x49, 0x5a, 0x00, 0x94, 0x47, 0x5a, 0x30, 0x84, 0x47, 0x5a,
    0x00, 0x94, 0x45, 0x5a, 0x81, 0x28, 0x84, 0x45, 0x5a, 0x18, 0x94, 0x49, 0x5a, 0x30, 0x84, 0x49,
    0x5a, 0x00, 0x94, 0x47, 0x5a, 0x30, 0x84, 0x47, 0x5a, 0x00, 0x94, 0x49, 0x5a, 0x18, 0x84, 0x49,
    0x5a, 0x48, 0x94, 0x49, 0x5a, 0x18, 0x84, 0x49, 0x5a, 0x48, 0x94, 0x49, 0x5a, 0x30, 0x84, 0x49,
    0x5a, 0x00, 0x94, 0x47, 0x5a, 0x30, 0x84, 0x47, 0x5a, 0x00, 0x94, 0x49, 0x5a, 0x18, 0x84, 0x49,
    0x5a, 0x48, 0x94, 0x47, 0x5a, 0x18, 0x84, 0x47, 0x5a, 0x48, 0x94, 0x49, 0x5a, 0x81, 0x04, 0x84,
    0x49, 0x5a, 0x3c, 0x94, 0x45, 0x5a, 0x30, 0x84, 0x45, 0x5a, 0x00, 0x94, 0x47, 0x5a, 0x30, 0x84,
    0x47, 0x5a, 0x00, 0x94, 0x49, 0x5a, 0x30, 0x84, 0x49, 0x5a, 0x00, 0x94, 0x4a, 0x5a, 0x30, 0x84,
    0x4a, 0x5a, 0x00, 0x94, 0x49, 0x5a, 0x18, 0x84, 0x49, 0x5a, 0x48, 0x94, 0x47, 0x5a, 0x18, 0x84,
    0x47, 0x5a, 0x48, 0x94, 0x49, 0x5a, 0x81, 0x28, 0x84, 0x49, 0x5a, 0x81, 0x58, 0x94, 0x49, 0x5a,
    0x30, 0x84, 0x49, 0x5a, 0x00, 0x94, 0x47, 0x5a, 0x30, 0x84, 0x47, 0x5a, 0x00, 0x94, 0x49, 0x5a,
    0x18, 0x84, 0x49, 0x5a, 0x48, 0x94, 0x49, 0x5a, 0x18, 0x84, 0x49, 0x5a, 0x48, 0x94, 0x4a, 0x5a,
    0x30, 0x84, 0x4a, 0x5a, 0x00, 0x94, 0x49, 0x5a, 0x30, 0x84, 0x49, 0x5a, 0x00, 0x94, 0x47, 0x5a,
    0x18, 0x84, 0x47, 0x5a, 0x48, 0x94, 0x45, 0x5a, 0x18, 0x84, 0x45, 0x5a, 0x48, 0x94, 0x49, 0x5a,
    0x81, 0x28, 0x84, 0x49, 0x5a, 0x18, 0x94, 0x49, 0x5a, 0x30, 0x84, 0x49, 0x5a, 0x00, 0x94, 0x47,
    0x5a, 0x30, 0x84, 0x47, 0x5a, 0x00, 0x94, 0x49, 0x5a, 0x30, 0x84, 0x49, 0x5a, 0x00, 0x94, 0x4a,
    0x5a, 0x30, 0x84, 0x4a, 0x5a, 0x00, 0x94, 0x49, 0x5a, 0x18, 0x84, 0x49, 0x5a, 0x48, 0x94, 0x45,
    0x5a, 0x18, 0x84, 0x45, 0x5a, 0x48, 0x94, 0x49, 0x5a, 0x81, 0x28, 0x84, 0x49, 0x5a, 0x81, 0x58,
    0x94, 0x4c, 0x5a, 0x30, 0x84, 0x4c, 0x5a, 0x00, 0x94, 0x4a, 0x5a, 0x30, 0x84, 0x4a, 0x5a, 0x00,
    0x94, 0x4c, 0x5a, 0x18, 0x84, 0x4c, 0x5a, 0x48, 0x94, 0x4c, 0x5a, 0x18, 0x84, 0x4c, 0x5a, 0x48,
    0x94, 0x4c, 0x5a, 0x30, 0x84, 0x4c, 0x5a, 0x00, 0x94, 0x4a, 0x5a, 0x30, 0x84, 0x4a, 0x5a, 0x00,
    0x94, 0x4c, 0x5a, 0x18, 0x84, 0x4c, 0x5a, 0x48, 0x94, 0x4e, 0x5a, 0x18, 0x84, 0x4e, 0x5a, 0x48,
    0x94, 0x4c, 0x5a, 0x81, 0x28, 0x84, 0x4c, 0x5a, 0x18, 0x94, 0x50, 0x5a, 0x18, 0x84, 0x50, 0x5a,
    0x48, 0x94, 0x50, 0x5a, 0x30, 0x84, 0x50, 0x5a, 0x00, 0x94, 0x4e, 0x5a, 0x30, 0x84, 0x4e, 0x5a,
    0x00, 0x94, 0x4c, 0x5a, 0x18, 0x84, 0x4c, 0x5a, 0x48, 0x94, 0x4a, 0x5a, 0x18, 0x84, 0x4a, 0x5a,
    0x48, 0x94, 0x4c, 0x5a, 0x81, 0x28, 0x84, 0x4c, 0x5a, 0x81, 0x58, 0x94, 0x49, 0x5a, 0x30, 0x84,
    0x49, 0x5a, 0x00, 0x94, 0x47, 0x5a, 0x30, 0x84, 0x47, 0x5a, 0x00, 0x94, 0x49, 0x5a, 0x18, 0x84,
    0x49, 0x5a, 0x48, 0x94, 0x49, 0x5a, 0x18, 0x84, 0x49, 0x5a, 0x48, 0x94, 0x47, 0x5a, 0x30, 0x84,
    0x47, 0x5a, 0x00, 0x94, 0x49, 0x5a, 0x30, 0x84, 0x49, 0x5a, 0x00, 0x94, 0x4a, 0x5a, 0x18, 0x84,
    0x4a, 0x5a, 0x48, 0x94, 0x47, 0x5a, 0x18, 0x84, 0x47, 0x5a, 0x48, 0x94, 0x49, 0x5a, 0x81, 0x28,
    0x84, 0x49, 0x5a, 0x18, 0x94, 0x49, 0x5a, 0x30, 0x84, 0x49, 0x5a, 0x00, 0x94, 0x47, 0x5a, 0x30,
    0x84, 0x47, 0x5a, 0x00, 0x94, 0x49, 0x5a, 0x30, 0x84, 0x49, 0x5a, 0x00, 0x94, 0x4a, 0x5a, 0x30,
    0x84, 0x4a, 0x5a, 0x00, 0x94, 0x49, 0x5a, 0x18, 0x84, 0x49, 0x5a, 0x48, 0x94, 0x45, 0x5a, 0x18,
    0x84, 0x45, 0x5a, 0x48, 0x94, 0x45, 0x5a, 0x18, 0x84, 0x45, 0x5a, 0x82, 0x68, 0x94, 0x49, 0x5a,
    0x30, 0x84, 0x49, 0x5a, 0x00, 0x94, 0x47, 0x5a, 0x30, 0x84, 0x47, 0x5a, 0x00, 0x94, 0x49, 0x5a,
    0x18, 0x84, 0x49, 0x5a, 0x48, 0x94, 0x49, 0x5a, 0x18, 0x84, 0x49, 0x5a, 0x48, 0x94, 0x49, 0x5a,
    0x30, 0x84, 0x49, 0x5a, 0x00, 0x94, 0x47, 0x5a, 0x30, 0x84, 0x47, 0x5a, 0x00, 0x94, 0x49, 0x5a,
    0x18, 0x84, 0x49, 0x5a, 0x48, 0x94, 0x47, 0x5a, 0x18, 0x84, 0x47, 0x5a, 0x48, 0x94, 0x49, 0x5a,
    0x81, 0x04, 0x84, 0x49, 0x5a, 0x3c, 0x94, 0x45, 0x5a, 0x30, 0x84, 0x45, 0x5a, 0x00, 0x94, 0x47,
    0x5a, 0x30, 0x84, 0x47, 0x5a, 0x00, 0x94, 0x49, 0x5a, 0x30, 0x84, 0x49, 0x5a, 0x00, 0x94, 0x4a,
    0x5a, 0x30, 0x84, 0x4a, 0x5a, 0x00, 0x94, 0x49, 0x5a, 0x18, 0x84, 0x49, 0x5a, 0x48, 0x94, 0x47,
    0x5a, 0x18, 0x84, 0x47, 0x5a, 0x48, 0x94, 0x49, 0x5a, 0x81, 0x28, 0x84, 0x49, 0x5a, 0x81, 0x58,
    0x94, 0x49, 0x5a, 0x30, 0x84, 0x49, 0x5a, 0x00, 0x94, 0x47, 0x5a, 0x30, 0x84, 0x47, 0x5a, 0x00,
    0x94, 0x49, 0x5a, 0x18, 0x84, 0x49, 0x5a, 0x48, 0x94, 0x49, 0x5a, 0x18, 0x84, 0x49, 0x5a, 0x48,
    0x94, 0x4a, 0x5a, 0x30, 0x84, 0x4a, 0x5a, 0x00, 0x94, 0x49, 0x5a, 0x30, 0x84, 0x49, 0x5a, 0x00,
    0x94, 0x47, 0x5a, 0x18, 0x84, 0x47, 0x5a, 0x48, 0x94, 0x45, 0x5a, 0x18, 0x84, 0x45, 0x5a, 0x48,
    0x94, 0x49, 0x5a, 0x81, 0x28, 0x84, 0x49, 0x5a, 0x18, 0x94, 0x49, 0x5a, 0x30, 0x84, 0x49, 0x5a,
    0x00, 0x94, 0x47, 0x5a, 0x30, 0x84, 0x47, 0x5a, 0x00, 0x94, 0x49, 0x5a, 0x30, 0x84, 0x49, 0x5a,
    0x00, 0x94, 0x4a, 0x5a, 0x30, 0x84, 0x4a, 0x5a, 0x00, 0x94, 0x49, 0x5a, 0x18, 0x84, 0x49, 0x5a,
    0x48, 0x94, 0x45, 0x5a, 0x18, 0x84, 0x45, 0x5a, 0x48, 0x94, 0x49, 0x5a, 0x81, 0x28, 0x84, 0x49,
    0x5a, 0x81, 0x58, 0x94, 0x4c, 0x5a, 0x30, 0x84, 0x4c, 0x5a, 0x00, 0x94, 0x4a, 0x5a, 0x30, 0x84,
    0x4a, 0x5a, 0x00, 0x94, 0x4c, 0x5a, 0x18, 0x84, 0x4c, 0x5a, 0x48, 0x94, 0x4c, 0x5a, 0x18, 0x84,
    0x4c, 0x5a, 0x48, 0x94, 0x4c, 0x5a, 0x30, 0x84, 0x4c, 0x5a, 0x00, 0x94, 0x4a, 0x5a, 0x30, 0x84,
    0x4a, 0x5a, 0x00, 0x94, 0x4c, 0x5a, 0x18, 0x84, 0x4c, 0x5a, 0x48, 0x94, 0x4e, 0x5a, 0x18, 0x84,
    0x4e, 0x5a, 0x48, 0x94, 0x4c, 0x5a, 0x81, 0x28, 0x84, 0x4c, 0x5a, 0x18, 0x94, 0x50, 0x5a, 0x18,
    0x84, 0x50, 0x5a, 0x48, 0x94, 0x50, 0x5a, 0x30, 0x84, 0x50, 0x5a, 0x00, 0x94, 0x4e, 0x5a, 0x30,
    0x84, 0x4e, 0x5a, 0x00, 0x94, 0x4c, 0x5a, 0x18, 0x84, 0x4c, 0x5a, 0x48, 0x94, 0x4a, 0x5a, 0x18,
    0x84, 0x4a, 0x5a, 0x48, 0x94, 0x4c, 0x5a, 0x81, 0x28, 0x84, 0x4c, 0x5a, 0x81, 0x58, 0x94, 0x49,
    0x5a, 0x30, 0x84, 0x49, 0x5a, 0x00, 0x94, 0x47, 0x5a, 0x30, 0x84, 0x47, 0x5a, 0x00, 0x94, 0x49,
    0x5a, 0x18, 0x84, 0x49, 0x5a, 0x48, 0x94, 0x49, 0x5a, 0x18, 0x84, 0x49, 0x5a, 0x48, 0x94, 0x47,
    0x5a, 0x30, 0x84, 0x47, 0x5a, 0x00, 0x94, 0x49, 0x5a, 0x30, 0x84, 0x49, 0x5a, 0x00, 0x94, 0x4a,
    0x5a, 0x18, 0x84, 0x4a, 0x5a, 0x48, 0x94, 0x47, 0x5a, 0x18, 0x84, 0x47, 0x5a, 0x48, 0x94, 0x49,
    0x5a, 0x81, 0x28, 0x84, 0x49, 0x5a, 0x18, 0x94, 0x49, 0x5a, 0x30, 0x84, 0x49, 0x5a, 0x00, 0x94,
    0x47, 0x5a, 0x30, 0x84, 0x47, 0x5a, 0x00, 0x94, 0x49, 0x5a, 0x30, 0x84, 0x49, 0x5a, 0x00, 0x94,
    0x4a, 0x5a, 0x30, 0x84, 0x4a, 0x5a, 0x00, 0x94, 0x49, 0x5a, 0x18, 0x84, 0x49, 0x5a, 0x48, 0x94,
    0x45, 0x5a, 0x18, 0x84, 0x45, 0x5a, 0x48, 0x94, 0x45, 0x5a, 0x18, 0x84, 0x45, 0x5a, 0x85, 0x68,
    0xff, 0x2f, 0x00, 0x4d, 0x54, 0x72, 0x6b, 0x00, 0x00, 0x05, 0x95, 0x00, 0xff, 0x03, 0x0e, 0x70,
    0x69, 0x74, 0x63, 0x68, 0x36, 0x20, 0x63, 0x68, 0x61, 0x6e, 0x6e, 0x65, 0x6c, 0x00, 0xb5, 0x65,
    0x00, 0x00, 0xb5, 0x64, 0x00, 0x00, 0xb5, 0x06, 0x18, 0x00, 0xb5, 0x26, 0x00, 0x00, 0xb5, 0x65,
    0x7f, 0x00, 0xb5, 0x64, 0x7f, 0x00, 0xff, 0x04, 0x0c, 0x49, 0x6e, 0x73, 0x74, 0x72, 0x75, 0x6d,
    0x65, 0x6e, 0x74, 0x20, 0x31, 0x00, 0xc5, 0x55, 0x00, 0xb5, 0x07, 0x5c, 0x00, 0xb5, 0x0a, 0x40,
    0x00, 0x95, 0x51, 0x5a, 0x18, 0x85, 0x51, 0x5a, 0x48, 0x95, 0x4c, 0x5a, 0x30, 0x85, 0x4c, 0x5a,
    0x00, 0x95, 0x4a, 0x5a, 0x30, 0x85, 0x4a, 0x5a, 0x00, 0x95, 0x49, 0x5a, 0x81, 0x00, 0x85, 0x49,
    0x5a, 0x10, 0x95, 0x49, 0x5a, 0x30, 0x85, 0x49, 0x5a, 0x00, 0x95, 0x4a, 0x5a, 0x30, 0x85, 0x4a,
    0x5a, 0x00, 0x95, 0x4c, 0x5a, 0x30, 0x85, 0x4c, 0x5a, 0x00, 0x95, 0x4e, 0x5a, 0x30, 0x85, 0x4e,
    0x5a, 0x00, 0x95, 0x50, 0x5a, 0x30, 0x85, 0x50, 0x5a, 0x00, 0x95, 0x4c, 0x5a, 0x81, 0x28, 0x85,
    0x4c, 0x5a, 0x18, 0x95, 0x4e, 0x5a, 0x18, 0x85, 0x4e, 0x5a, 0x48, 0x95, 0x4c, 0x5a, 0x30, 0x85,
    0x4c, 0x5a, 0x00, 0x95, 0x4a, 0x5a, 0x30, 0x85, 0x4a, 0x5a, 0x00, 0x95, 0x49, 0x5a, 0x18, 0x85,
    0x49, 0x5a, 0x48, 0x95, 0x49, 0x5a, 0x18, 0x85, 0x49, 0x5a, 0x48, 0x95, 0x47, 0x5a, 0x18, 0x85,
    0x47, 0x5a, 0x48, 0x95, 0x49, 0x5a, 0x18, 0x85, 0x49, 0x5a, 0x48, 0x95, 0x4a, 0x5a, 0x81, 0x28,
    0x85, 0x4a, 0x5a, 0x18, 0x95, 0x51, 0x5a, 0x18, 0x85, 0x51, 0x5a, 0x48, 0x95, 0x4c, 0x5a, 0x30,
    0x85, 0x4c, 0x5a, 0x00, 0x95, 0x4a, 0x5a, 0x30, 0x85, 0x4a, 0x5a, 0x00, 0x95, 0x49, 0x5a, 0x81,
    0x04, 0x85, 0x49, 0x5a, 0x3c, 0x95, 0x49, 0x5a, 0x30, 0x85, 0x49, 0x5a, 0x00, 0x95, 0x4a, 0x5a,
    0x30, 0x85, 0x4a, 0x5a, 0x00, 0x95, 0x4c, 0x5a, 0x30, 0x85, 0x4c, 0x5a, 0x00, 0x95, 0x4e, 0x5a,
    0x30, 0x85, 0x4e, 0x5a, 0x00, 0x95, 0x4a, 0x5a, 0x81, 0x28, 0x85, 0x4a, 0x5a, 0x18, 0x95, 0x4e,
    0x5a, 0x30, 0x85, 0x4e, 0x5a, 0x00, 0x95, 0x4c, 0x5a, 0x30, 0x85, 0x4c, 0x5a, 0x00, 0x95, 0x4a,
    0x5a, 0x30, 0x85, 0x4a, 0x5a, 0x00, 0x95, 0x49, 0x5a, 0x30, 0x85, 0x49, 0x5a, 0x00, 0x95, 0x47,
    0x5a, 0x30, 0x85, 0x47, 0x5a, 0x00, 0x95, 0x49, 0x5a, 0x30, 0x85, 0x49, 0x5a, 0x00, 0x95, 0x4a,
    0x5a, 0x30, 0x85, 0x4a, 0x5a, 0x00, 0x95, 0x4e, 0x5a, 0x30, 0x85, 0x4e, 0x5a, 0x00, 0x95, 0x4c,
    0x5a, 0x30, 0x85, 0x4c, 0x5a, 0x00, 0x95, 0x4a, 0x5a, 0x30, 0x85, 0x4a, 0x5a, 0x00, 0x95, 0x49,
    0x5a, 0x30, 0x85, 0x49, 0x5a, 0x00, 0x95, 0x47, 0x5a, 0x30, 0x85, 0x47, 0x5a, 0x00, 0x95, 0x45,
    0x5a, 0x81, 0x28, 0x85, 0x45, 0x5a, 0x18, 0x95, 0x49, 0x5a, 0x30, 0x85, 0x49, 0x5a, 0x00, 0x95,
    0x47, 0x5a, 0x30, 0x85, 0x47, 0x5a, 0x00, 0x95, 0x49, 0x5a, 0x18, 0x85, 0x49, 0x5a, 0x48, 0x95,
    0x49, 0x5a, 0x18, 0x85, 0x49, 0x5a, 0x48, 0x95, 0x49, 0x5a, 0x30, 0x85, 0x49, 0x5a, 0x00, 0x95,
    0x47, 0x5a, 0x30, 0x85, 0x47, 0x5a, 0x00, 0x95, 0x49, 0x5a, 0x18, 0x85, 0x49, 0x5a, 0x48, 0x95,
    0x47, 0x5a, 0x18, 0x85, 0x47, 0x5a, 0x48, 0x95, 0x49, 0x5a, 0x81, 0x04, 0x85, 0x49, 0x5a, 0x3c,
    0x95, 0x45, 0x5a, 0x30, 0x85, 0x45, 0x5a, 0x00, 0x95, 0x47, 0x5a, 0x30, 0x85, 0x47, 0x5a, 0x00,
    0x95, 0x49, 0x5a, 0x30, 0x85, 0x49, 0x5a, 0x00, 0x95, 0x4a, 0x5a, 0x30, 0x85, 0x4a, 0x5a, 0x00,
    0x95, 0x49, 0x5a, 0x18, 0x85, 0x49, 0x5a, 0x48, 0x95, 0x47, 0x5a, 0x18, 0x85, 0x47, 0x5a, 0x48,
    0x95, 0x49, 0x5a, 0x81, 0x28, 0x85, 0x49, 0x5a, 0x81, 0x58, 0x95, 0x49, 0x5a, 0x30, 0x85, 0x49,
    0x5a, 0x00, 0x95, 0x47, 0x5a, 0x30, 0x85, 0x47, 0x5a, 0x00, 0x95, 0x49, 0x5a, 0x18, 0x85, 0x49,
    0x5a, 0x48, 0x95, 0x49, 0x5a, 0x18, 0x85, 0x49, 0x5a, 0x48, 0x95, 0x4a, 0x5a, 0x30, 0x85, 0x4a,
    0x5a, 0x00, 0x95, 0x49, 0x5a, 0x30, 0x85, 0x49, 0x5a, 0x00, 0x95, 0x47, 0x5a, 0x18, 0x85, 0x47,
    0x5a, 0x48, 0x95, 0x45, 0x5a, 0x18, 0x85, 0x45, 0x5a, 0x48, 0x95, 0x49, 0x5a, 0x81, 0x28, 0x85,
    0x49, 0x5a, 0x18, 0x95, 0x49, 0x5a, 0x30, 0x85, 0x49, 0x5a, 0x00, 0x95, 0x47, 0x5a, 0x30, 0x85,
    0x47, 0x5a, 0x00, 0x95, 0x49, 0x5a, 0x30, 0x85, 0x49, 0x5a, 0x00, 0x95, 0x4a, 0x5a, 0x30, 0x85,
    0x4a, 0x5a, 0x00, 0x95, 0x49, 0x5a, 0x18, 0x85, 0x49, 0x5a, 0x48, 0x95, 0x45, 0x5a, 0x18, 0x85,
    0x45, 0x5a, 0x48, 0x95, 0x49, 0x5a, 0x81, 0x28, 0x85, 0x49, 0x5a, 0x81, 0x58, 0x95, 0x4c, 0x5a,
    0x30, 0x85, 0x4c, 0x5a, 0x00, 0x95, 0x4a, 0x5a, 0x30, 0x85, 0x4a, 0x5a, 0x00, 0x95, 0x4c, 0x5a,
    0x18, 0x85, 0x4c, 0x5a, 0x48, 0x95, 0x4c, 0x5a, 0x18, 0x85, 0x4c, 0x5a, 0x48, 0x95, 0x4c, 0x5a,
    0x30, 0x85, 0x4c, 0x5a, 0x00, 0x95, 0x4a, 0x5a, 0x30, 0x85, 0x4a, 0x5a, 0x00, 0x95, 0x4c, 0x5a,
    0x18, 0x85, 0x4c, 0x5a, 0x48, 0x95, 0x4e, 0x5a, 0x18, 0x85, 0x4e, 0x5a, 0x48, 0x95, 0x4c, 0x5a,
    0x81, 0x28, 0x85, 0x4c, 0x5a, 0x18, 0x95, 0x50, 0x5a, 0x18, 0x85, 0x50, 0x5a, 0x48, 0x95, 0x50,
    0x5a, 0x30, 0x85, 0x50, 0x5a, 0x00, 0x95, 0x4e, 0x5a, 0x30, 0x85, 0x4e, 0x5a, 0x00, 0x95, 0x4c,
    0x5a, 0x18, 0x85, 0x4c, 0x5a, 0x48, 0x95, 0x4a, 0x5a, 0x18, 0x85, 0x4a, 0x5a, 0x48, 0x95, 0x4c,
    0x5a, 0x81, 0x28, 0x85, 0x4c, 0x5a, 0x81, 0x58, 0x95, 0x49, 0x5a, 0x30, 0x85, 0x49, 0x5a, 0x00,
    0x95, 0x47, 0x5a, 0x30, 0x85, 0x47, 0x5a, 0x00, 0x95, 0x49, 0x5a, 0x18, 0x85, 0x49, 0x5a, 0x48,
    0x95, 0x49, 0x5a, 0x18, 0x85, 0x49, 0x5a, 0x48, 0x95, 0x47, 0x5a, 0x30, 0x85, 0x47, 0x5a, 0x00,
    0x95, 0x49, 0x5a, 0x30, 0x85, 0x49, 0x5a, 0x00, 0x95, 0x4a, 0x5a, 0x18, 0x85, 0x4a, 0x5a, 0x48,
    0x95, 0x47, 0x5a, 0x18, 0x85, 0x47, 0x5a, 0x48, 0x95, 0x49, 0x5a, 0x81, 0x28, 0x85, 0x49, 0x5a,
    0x18, 0x95, 0x49, 0x5a, 0x30, 0x85, 0x49, 0x5a, 0x00, 0x95, 0x47, 0x5a, 0x30, 0x85, 0x47, 0x5a,
    0x00, 0x95, 0x49, 0x5a, 0x30, 0x85, 0x49, 0x5a, 0x00, 0x95, 0x4a, 0x5a, 0x30, 0x85, 0x4a, 0x5a,
    0x00, 0x95, 0x49, 0x5a, 0x18, 0x85, 0x49, 0x5a, 0x48, 0x95, 0x45, 0x5a, 0x18, 0x85, 0x45, 0x5a,
    0x48, 0x95, 0x45, 0x5a, 0x18, 0x85, 0x45, 0x5a, 0x82, 0x68, 0x95, 0x49, 0x5a, 0x30, 0x85, 0x49,
    0x5a, 0x00, 0x95, 0x47, 0x5a, 0x30, 0x85, 0x47, 0x5a, 0x00, 0x95, 0x49, 0x5a, 0x18, 0x85, 0x49,
    0x5a, 0x48, 0x95, 0x49, 0x5a, 0x18, 0x85, 0x49, 0x5a, 0x48, 0x95, 0x49, 0x5a, 0x30, 0x85, 0x49,
    0x5a, 0x00, 0x95, 0x47, 0x5a, 0x30, 0x85, 0x47, 0x5a, 0x00, 0x95, 0x49, 0x5a, 0x18, 0x85, 0x49,
    0x5a, 0x48, 0x95, 0x47, 0x5a, 0x18, 0x85, 0x47, 0x5a, 0x48, 0x95, 0x49, 0x5a, 0x81, 0x04, 0x85,
    0x49, 0x5a, 0x3c, 0x95, 0x45, 0x5a, 0x30, 0x85, 0x45, 0x5a, 0x00, 0x95, 0x47, 0x5a, 0x30, 0x85,
    0x47, 0x5a, 0x00, 0x95, 0x49, 0x5a, 0x30, 0x85, 0x49, 0x5a, 0x00, 0x95, 0x4a, 0x5a, 0x30, 0x85,
    0x4a, 0x5a, 0x00, 0x95, 0x49, 0x5a, 0x18, 0x85, 0x49, 0x5a, 0x48, 0x95, 0x47, 0x5a, 0x18, 0x85,
    0x47, 0x5a, 0x48, 0x95, 0x49, 0x5a, 0x81, 0x28, 0x85, 0x49, 0x5a, 0x81, 0x58, 0x95, 0x49, 0x5a,
    0x30, 0x85, 0x49, 0x5a, 0x00, 0x95, 0x47, 0x5a, 0x30, 0x85, 0x47, 0x5a, 0x00, 0x95, 0x49, 0x5a,
    0x18, 0x85, 0x49, 0x5a, 0x48, 0x95, 0x49, 0x5a, 0x18, 0x85, 0x49, 0x5a, 0x48, 0x95, 0x4a, 0x5a,
    0x30, 0x85, 0x4a, 0x5a, 0x00, 0x95, 0x49, 0x5a, 0x30, 0x85, 0x49, 0x5a, 0x00, 0x95, 0x47, 0x5a,
    0x18, 0x85, 0x47, 0x5a, 0x48, 0x95, 0x45, 0x5a, 0x18, 0x85, 0x45, 0x5a, 0x48, 0x95, 0x49, 0x5a,
    0x81, 0x28, 0x85, 0x49, 0x5a, 0x18, 0x95, 0x49, 0x5a, 0x30, 0x85, 0x49, 0x5a, 0x00, 0x95, 0x47,
    0x5a, 0x30, 0x85, 0x47, 0x5a, 0x00, 0x95, 0x49, 0x5a, 0x30, 0x85, 0x49, 0x5a, 0x00, 0x95, 0x4a,
    0x5a, 0x30, 0x85, 0x4a, 0x5a, 0x00, 0x95, 0x49, 0x5a, 0x18, 0x85, 0x49, 0x5a, 0x48, 0x95, 0x45,
    0x5a, 0x18, 0x85, 0x45, 0x5a, 0x48, 0x95, 0x49, 0x5a, 0x81, 0x28, 0x85, 0x49, 0x5a, 0x81, 0x58,
    0x95, 0x4c, 0x5a, 0x30, 0x85, 0x4c, 0x5a, 0x00, 0x95, 0x4a, 0x5a, 0x30, 0x85, 0x4a, 0x5a, 0x00,
    0x95, 0x4c, 0x5a, 0x18, 0x85, 0x4c, 0x5a, 0x48, 0x95, 0x4c, 0x5a, 0x18, 0x85, 0x4c, 0x5a, 0x48,
    0x95, 0x4c, 0x5a, 0x30, 0x85, 0x4c, 0x5a, 0x00, 0x95, 0x4a, 0x5a, 0x30, 0x85, 0x4a, 0x5a, 0x00,
    0x95, 0x4c, 0x5a, 0x18, 0x85, 0x4c, 0x5a, 0x48, 0x95, 0x4e, 0x5a, 0x18, 0x85, 0x4e, 0x5a, 0x48,
    0x95, 0x4c, 0x5a, 0x81, 0x28, 0x85, 0x4c, 0x5a, 0x18, 0x95, 0x50, 0x5a, 0x18, 0x85, 0x50, 0x5a,
    0x48, 0x95, 0x50, 0x5a, 0x30, 0x85, 0x50, 0x5a, 0x00, 0x95, 0x4e, 0x5a, 0x30, 0x85, 0x4e, 0x5a,
    0x00, 0x95, 0x4c, 0x5a, 0x18, 0x85, 0x4c, 0x5a, 0x48, 0x95, 0x4a, 0x5a, 0x18, 0x85, 0x4a, 0x5a,
    0x48, 0x95, 0x4c, 0x5a, 0x81, 0x28, 0x85, 0x4c, 0x5a, 0x81, 0x58, 0x95, 0x49, 0x5a, 0x30, 0x85,
    0x49, 0x5a, 0x00, 0x95, 0x47, 0x5a, 0x30, 0x85, 0x47, 0x5a, 0x00, 0x95, 0x49, 0x5a, 0x18, 0x85,
    0x49, 0x5a, 0x48, 0x95, 0x49, 0x5a, 0x18, 0x85, 0x49, 0x5a, 0x48, 0x95, 0x47, 0x5a, 0x30, 0x85,
    0x47, 0x5a, 0x00, 0x95, 0x49, 0x5a, 0x30, 0x85, 0x49, 0x5a, 0x00, 0x95, 0x4a, 0x5a, 0x18, 0x85,
    0x4a, 0x5a, 0x48, 0x95, 0x47, 0x5a, 0x18, 0x85, 0x47, 0x5a, 0x48, 0x95, 0x49, 0x5a, 0x81, 0x28,
    0x85, 0x49, 0x5a, 0x18, 0x95, 0x49, 0x5a, 0x30, 0x85, 0x49, 0x5a, 0x00, 0x95, 0x47, 0x5a, 0x30,
    0x85, 0x47, 0x5a, 0x00, 0x95, 0x49, 0x5a, 0x30, 0x85, 0x49, 0x5a, 0x00, 0x95, 0x4a, 0x5a, 0x30,
    0x85, 0x4a, 0x5a, 0x00, 0x95, 0x49, 0x5a, 0x18, 0x85, 0x49, 0x5a, 0x48, 0x95, 0x45, 0x5a, 0x18,
    0x85, 0x45, 0x5a, 0x48, 0x95, 0x45, 0x5a, 0x18, 0x85, 0x45, 0x5a, 0x85, 0x68, 0xff, 0x2f, 0x00,
    0x4d, 0x54, 0x72, 0x6b, 0x00, 0x00, 0x05, 0x95, 0x00, 0xff, 0x03, 0x0e, 0x70, 0x69, 0x74, 0x63,
    0x68, 0x37, 0x20, 0x63, 0x68, 0x61, 0x6e, 0x6e, 0x65, 0x6c, 0x00, 0xb6, 0x65, 0x00, 0x00, 0xb6,
    0x64, 0x00, 0x00, 0xb6, 0x06, 0x18, 0x00, 0xb6, 0x26, 0x00, 0x00, 0xb6, 0x65, 0x7f, 0x00, 0xb6,
    0x64, 0x7f, 0x00, 0xff, 0x04, 0x0c, 0x49, 0x6e, 0x73, 0x74, 0x72, 0x75, 0x6d, 0x65, 0x6e, 0x74,
    0x20, 0x31, 0x00, 0xc6, 0x34, 0x00, 0xb6, 0x07, 0x5c, 0x00, 0xb6, 0x0a, 0x40, 0x00, 0x96, 0x51,
    0x5a, 0x18, 0x86, 0x51, 0x5a, 0x48, 0x96, 0x4c, 0x5a, 0x30, 0x86, 0x4c, 0x5a, 0x00, 0x96, 0x4a,
    0x5a, 0x30, 0x86, 0x4a, 0x5a, 0x00, 0x96, 0x49, 0x5a, 0x81, 0x00, 0x86, 0x49, 0x5a, 0x10, 0x96,
    0x49, 0x5a, 0x30, 0x86, 0x49, 0x5a, 0x00, 0x96, 0x4a, 0x5a, 0x30, 0x86, 0x4a, 0x5a, 0x00, 0x96,
    0x4c, 0x5a, 0x30, 0x86, 0x4c, 0x5a, 0x00, 0x96, 0x4e, 0x5a, 0x30, 0x86, 0x4e, 0x5a, 0x00, 0x96,
    0x50, 0x5a, 0x30, 0x86, 0x50, 0x5a, 0x00, 0x96, 0x4c, 0x5a, 0x81, 0x28, 0x86, 0x4c, 0x5a, 0x18,
    0x96, 0x4e, 0x5a, 0x18, 0x86, 0x4e, 0x5a, 0x48, 0x96, 0x4c, 0x5a, 0x30, 0x86, 0x4c, 0x5a, 0x00,
    0x96, 0x4a, 0x5a, 0x30, 0x86, 0x4a, 0x5a, 0x00, 0x96, 0x49, 0x5a, 0x18, 0x86, 0x49, 0x5a, 0x48,
    0x96, 0x49, 0x5a, 0x18, 0x86, 0x49, 0x5a, 0x48, 0x96, 0x47, 0x5a, 0x18, 0x86, 0x47, 0x5a, 0x48,
    0x96, 0x49, 0x5a, 0x18, 0x86, 0x49, 0x5a, 0x48, 0x96, 0x4a, 0x5a, 0x81, 0x28, 0x86, 0x4a, 0x5a,
    0x18, 0x96, 0x51, 0x5a, 0x18, 0x86, 0x51, 0x5a, 0x48, 0x96, 0x4c, 0x5a, 0x30, 0x86, 0x4c, 0x5a,
    0x00, 0x96, 0x4a, 0x5a, 0x30, 0x86, 0x4a, 0x5a, 0x00, 0x96, 0x49, 0x5a, 0x81, 0x04, 0x86, 0x49,
    0x5a, 0x3c, 0x96, 0x49, 0x5a, 0x30, 0x86, 0x49, 0x5a, 0x00, 0x96, 0x4a, 0x5a, 0x30, 0x86, 0x4a,
    0x5a, 0x00, 0x96, 0x4c, 0x5a, 0x30, 0x86, 0x4c, 0x5a, 0x00, 0x96, 0x4e, 0x5a, 0x30, 0x86, 0x4e,
    0x5a, 0x00, 0x96, 0x4a, 0x5a, 0x81, 0x28, 0x86, 0x4a, 0x5a, 0x18, 0x96, 0x4e, 0x5a, 0x30, 0x86,
    0x4e, 0x5a, 0x00, 0x96, 0x4c, 0x5a, 0x30, 0x86, 0x4c, 0x5a, 0x00, 0x96, 0x4a, 0x5a, 0x30, 0x86,
    0x4a, 0x5a, 0x00, 0x96, 0x49, 0x5a, 0x30, 0x86, 0x49, 0x5a, 0x00, 0x96, 0x47, 0x5a, 0x30, 0x86,
    0x47, 0x5a, 0x00, 0x96, 0x49, 0x5a, 0x30, 0x86, 0x49, 0x5a, 0x00, 0x96, 0x4a, 0x5a, 0x30, 0x86,
    0x4a, 0x5a, 0x00, 0x96, 0x4e, 0x5a, 0x30, 0x86, 0x4e, 0x5a, 0x00, 0x96, 0x4c, 0x5a, 0x30, 0x86,
    0x4c, 0x5a, 0x00, 0x96, 0x4a, 0x5a, 0x30, 0x86, 0x4a, 0x5a, 0x00, 0x96, 0x49, 0x5a, 0x30, 0x86,
    0x49, 0x5a, 0x00, 0x96, 0x47, 0x5a, 0x30, 0x86, 0x47, 0x5a, 0x00, 0x96, 0x45, 0x5a, 0x81, 0x28,
    0x86, 0x45, 0x5a, 0x18, 0x96, 0x49, 0x5a, 0x30, 0x86, 0x49, 0x5a, 0x00, 0x96, 0x47, 0x5a, 0x30,
    0x86, 0x47, 0x5a, 0x00, 0x96, 0x49, 0x5a, 0x18, 0x86, 0x49, 0x5a, 0x48, 0x96, 0x49, 0x5a, 0x18,
    0x86, 0x49, 0x5a, 0x48, 0x96, 0x49, 0x5a, 0x30, 0x86, 0x49, 0x5a, 0x00, 0x96, 0x47, 0x5a, 0x30,
    0x86, 0x47, 0x5a, 0x00, 0x96, 0x49, 0x5a, 0x18, 0x86, 0x49, 0x5a, 0x48, 0x96, 0x47, 0x5a, 0x18,
    0x86, 0x47, 0x5a, 0x48, 0x96, 0x49, 0x5a, 0x81, 0x04, 0x86, 0x49, 0x5a, 0x3c, 0x96, 0x45, 0x5a,
    0x30, 0x86, 0x45, 0x5a, 0x00, 0x96, 0x47, 0x5a, 0x30, 0x86, 0x47, 0x5a, 0x00, 0x96, 0x49, 0x5a,
    0x30, 0x86, 0x49, 0x5a, 0x00, 0x96, 0x4a, 0x5a, 0x30, 0x86, 0x4a, 0x5a, 0x00, 0x96, 0x49, 0x5a,
    0x18, 0x86, 0x49, 0x5a, 0x48, 0x96, 0x47, 0x5a, 0x18, 0x86, 0x47, 0x5a, 0x48, 0x96, 0x49, 0x5a,
    0x81, 0x28, 0x86, 0x49, 0x5a, 0x81, 0x58, 0x96, 0x49, 0x5a, 0x30, 0x86, 0x49, 0x5a, 0x00, 0x96,
    0x47, 0x5a, 0x30, 0x86, 0x47, 0x5a, 0x00, 0x96, 0x49, 0x5a, 0x18, 0x86, 0x49, 0x5a, 0x48, 0x96,
    0x49, 0x5a, 0x18, 0x86, 0x49, 0x5a, 0x48, 0x96, 0x4a, 0x5a, 0x30, 0x86, 0x4a, 0x5a, 0x00, 0x96,
    0x49, 0x5a, 0x30, 0x86, 0x49, 0x5a, 0x00, 0x96, 0x47, 0x5a, 0x18, 0x86, 0x47, 0x5a, 0x48, 0x96,
    0x45, 0x5a, 0x18, 0x86, 0x45, 0x5a, 0x48, 0x96, 0x49, 0x5a, 0x81, 0x28, 0x86, 0x49, 0x5a, 0x18,
    0x96, 0x49, 0x5a, 0x30, 0x86, 0x49, 0x5a, 0x00, 0x96, 0x47, 0x5a, 0x30, 0x86, 0x47, 0x5a, 0x00,
    0x96, 0x49, 0x5a, 0x30, 0x86, 0x49, 0x5a, 0x00, 0x96, 0x4a, 0x5a, 0x30, 0x86, 0x4a, 0x5a, 0x00,
    0x96, 0x49, 0x5a, 0x18, 0x86, 0x49, 0x5a, 0x48, 0x96, 0x45, 0x5a, 0x18, 0x86, 0x45, 0x5a, 0x48,
    0x96, 0x49, 0x5a, 0x81, 0x28, 0x86, 0x49, 0x5a, 0x81, 0x58, 0x96, 0x4c, 0x5a, 0x30, 0x86, 0x4c,
    0x5a, 0x00, 0x96, 0x4a, 0x5a, 0x30, 0x86, 0x4a, 0x5a, 0x00, 0x96, 0x4c, 0x5a, 0x18, 0x86, 0x4c,
    0x5a, 0x48, 0x96, 0x4c, 0x5a, 0x18, 0x86, 0x4c, 0x5a, 0x48, 0x96, 0x4c, 0x5a, 0x30, 0x86, 0x4c,
    0x5a, 0x00, 0x96, 0x4a, 0x5a, 0x30, 0x86, 0x4a, 0x5a, 0x00, 0x96, 0x4c, 0x5a, 0x18, 0x86, 0x4c,
    0x5a, 0x48, 0x96, 0x4e, 0x5a, 0x18, 0x86, 0x4e, 0x5a, 0x48, 0x96, 0x4c, 0x5a, 0x81, 0x28, 0x86,
    0x4c, 0x5a, 0x18, 0x96, 0x50, 0x5a, 0x18, 0x86, 0x50, 0x5a, 0x48, 0x96, 0x50, 0x5a, 0x30, 0x86,
    0x50, 0x5a, 0x00, 0x96, 0x4e, 0x5a, 0x30, 0x86, 0x4e, 0x5a, 0x00, 0x96, 0x4c, 0x5a, 0x18, 0x86,
    0x4c, 0x5a, 0x48, 0x96, 0x4a, 0x5a, 0x18, 0x86, 0x4a, 0x5a, 0x48, 0x96, 0x4c, 0x5a, 0x81, 0x28,
    0x86, 0x4c, 0x5a, 0x81, 0x58, 0x96, 0x49, 0x5a, 0x30, 0x86, 0x49, 0x5a, 0x00, 0x96, 0x47, 0x5a,
    0x30, 0x86, 0x47, 0x5a, 0x00, 0x96, 0x49, 0x5a, 0x18, 0x86, 0x49, 0x5a, 0x48, 0x96, 0x49, 0x5a,
    0x18, 0x86, 0x49, 0x5a, 0x48, 0x96, 0x47, 0x5a, 0x30, 0x86, 0x47, 0x5a, 0x00, 0x96, 0x49, 0x5a,
    0x30, 0x86, 0x49, 0x5a, 0x00, 0x96, 0x4a, 0x5a, 0x18, 0x86, 0x4a, 0x5a, 0x48, 0x96, 0x47, 0x5a,
    0x18, 0x86, 0x47, 0x5a, 0x48, 0x96, 0x49, 0x5a, 0x81, 0x28, 0x86, 0x49, 0x5a, 0x18, 0x96, 0x49,
    0x5a, 0x30, 0x86, 0x49, 0x5a, 0x00, 0x96, 0x47, 0x5a, 0x30, 0x86, 0x47, 0x5a, 0x00, 0x96, 0x49,
    0x5a, 0x30, 0x86, 0x49, 0x5a, 0x00, 0x96, 0x4a, 0x5a, 0x30, 0x86, 0x4a, 0x5a, 0x00, 0x96, 0x49,
    0x5a, 0x18, 0x86, 0x49, 0x5a, 0x48, 0x96, 0x45, 0x5a, 0x18, 0x86, 0x45, 0x5a, 0x48, 0x96, 0x45,
    0x5a, 0x18, 0x86, 0x45, 0x5a, 0x82, 0x68, 0x96, 0x49, 0x5a, 0x30, 0x86, 0x49, 0x5a, 0x00, 0x96,
    0x47, 0x5a, 0x30, 0x86, 0x47, 0x5a, 0x00, 0x96, 0x49, 0x5a, 0x18, 0x86, 0x49, 0x5a, 0x48, 0x96,
    0x49, 0x5a, 0x18, 0x86, 0x49, 0x5a, 0x48, 0x96, 0x49, 0x5a, 0x30, 0x86, 0x49, 0x5a, 0x00, 0x96,
    0x47, 0x5a, 0x30, 0x86, 0x47, 0x5a, 0x00, 0x96, 0x49, 0x5a, 0x18, 0x86, 0x49, 0x5a, 0x48, 0x96,
    0x47, 0x5a, 0x18, 0x86, 0x47, 0x5a, 0x48, 0x96, 0x49, 0x5a, 0x81, 0x04, 0x86, 0x49, 0x5a, 0x3c,
    0x96, 0x45, 0x5a, 0x30, 0x86, 0x45, 0x5a, 0x00, 0x96, 0x47, 0x5a, 0x30, 0x86, 0x47, 0x5a, 0x00,
    0x96, 0x49, 0x5a, 0x30, 0x86, 0x49, 0x5a, 0x00, 0x96, 0x4a, 0x5a, 0x30, 0x86, 0x4a, 0x5a, 0x00,
    0x96, 0x49, 0x5a, 0x18, 0x86, 0x49, 0x5a, 0x48, 0x96, 0x47, 0x5a, 0x18, 0x86, 0x47, 0x5a, 0x48,
    0x96, 0x49, 0x5a, 0x81, 0x28, 0x86, 0x49, 0x5a, 0x81, 0x58, 0x96, 0x49, 0x5a, 0x30, 0x86, 0x49,
    0x5a, 0x00, 0x96, 0x47, 0x5a, 0x30, 0x86, 0x47, 0x5a, 0x00, 0x96, 0x49, 0x5a, 0x18, 0x86, 0x49,
    0x5a, 0x48, 0x96, 0x49, 0x5a, 0x18, 0x86, 0x49, 0x5a, 0x48, 0x96, 0x4a, 0x5a, 0x30, 0x86, 0x4a,
    0x5a, 0x00, 0x96, 0x49, 0x5a, 0x30, 0x86, 0x49, 0x5a, 0x00, 0x96, 0x47, 0x5a, 0x18, 0x86, 0x47,
    0x5a, 0x48, 0x96, 0x45, 0x5a, 0x18, 0x86, 0x45, 0x5a, 0x48, 0x96, 0x49, 0x5a, 0x81, 0x28, 0x86,
    0x49, 0x5a, 0x18, 0x96, 0x49, 0x5a, 0x30, 0x86, 0x49, 0x5a, 0x00, 0x96, 0x47, 0x5a, 0x30, 0x86,
    0x47, 0x5a, 0x00, 0x96, 0x49, 0x5a, 0x30, 0x86, 0x49, 0x5a, 0x00, 0x96, 0x4a, 0x5a, 0x30, 0x86,
    0x4a, 0x5a, 0x00, 0x96, 0x49, 0x5a, 0x18, 0x86, 0x49, 0x5a, 0x48, 0x96, 0x45, 0x5a, 0x18, 0x86,
    0x45, 0x5a, 0x48, 0x96, 0x49, 0x5a, 0x81, 0x28, 0x86, 0x49, 0x5a, 0x81, 0x58, 0x96, 0x4c, 0x5a,
    0x30, 0x86, 0x4c, 0x5a, 0x00, 0x96, 0x4a, 0x5a, 0x30, 0x86, 0x4a, 0x5a, 0x00, 0x96, 0x4c, 0x5a,
    0x18, 0x86, 0x4c, 0x5a, 0x48, 0x96, 0x4c, 0x5a, 0x18, 0x86, 0x4c, 0x5a, 0x48, 0x96, 0x4c, 0x5a,
    0x30, 0x86, 0x4c, 0x5a, 0x00, 0x96, 0x4a, 0x5a, 0x30, 0x86, 0x4a, 0x5a, 0x00, 0x96, 0x4c, 0x5a,
    0x18, 0x86, 0x4c, 0x5a, 0x48, 0x96, 0x4e, 0x5a, 0x18, 0x86, 0x4e, 0x5a, 0x48, 0x96, 0x4c, 0x5a,
    0x81, 0x28, 0x86, 0x4c, 0x5a, 0x18, 0x96, 0x50, 0x5a, 0x18, 0x86, 0x50, 0x5a, 0x48, 0x96, 0x50,
    0x5a, 0x30, 0x86, 0x50, 0x5a, 0x00, 0x96, 0x4e, 0x5a, 0x30, 0x86, 0x4e, 0x5a, 0x00, 0x96, 0x4c,
    0x5a, 0x18, 0x86, 0x4c, 0x5a, 0x48, 0x96, 0x4a, 0x5a, 0x18, 0x86, 0x4a, 0x5a, 0x48, 0x96, 0x4c,
    0x5a, 0x81, 0x28, 0x86, 0x4c, 0x5a, 0x81, 0x58, 0x96, 0x49, 0x5a, 0x30, 0x86, 0x49, 0x5a, 0x00,
    0x96, 0x47, 0x5a, 0x30, 0x86, 0x47, 0x5a, 0x00, 0x96, 0x49, 0x5a, 0x18, 0x86, 0x49, 0x5a, 0x48,
    0x96, 0x49, 0x5a, 0x18, 0x86, 0x49, 0x5a, 0x48, 0x96, 0x47, 0x5a, 0x30, 0x86, 0x47, 0x5a, 0x00,
    0x96, 0x49, 0x5a, 0x30, 0x86, 0x49, 0x5a, 0x00, 0x96, 0x4a, 0x5a, 0x18, 0x86, 0x4a, 0x5a, 0x48,
    0x96, 0x47, 0x5a, 0x18, 0x86, 0x47, 0x5a, 0x48, 0x96, 0x49, 0x5a, 0x81, 0x28, 0x86, 0x49, 0x5a,
    0x18, 0x96, 0x49, 0x5a, 0x30, 0x86, 0x49, 0x5a, 0x00, 0x96, 0x47, 0x5a, 0x30, 0x86, 0x47, 0x5a,
    0x00, 0x96, 0x49, 0x5a, 0x30, 0x86, 0x49, 0x5a, 0x00, 0x96, 0x4a, 0x5a, 0x30, 0x86, 0x4a, 0x5a,
    0x00, 0x96, 0x49, 0x5a, 0x18, 0x86, 0x49, 0x5a, 0x48, 0x96, 0x45, 0x5a, 0x18, 0x86, 0x45, 0x5a,
    0x48, 0x96, 0x45, 0x5a, 0x18, 0x86, 0x45, 0x5a, 0x85, 0x68, 0xff, 0x2f, 0x00, 0x4d, 0x54, 0x72,
    0x6b, 0x00, 0x00, 0x05, 0x95, 0x00, 0xff, 0x03, 0x0e, 0x70, 0x69, 0x74, 0x63, 0x68, 0x38, 0x20,
    0x63, 0x68, 0x61, 0x6e, 0x6e, 0x65, 0x6c, 0x00, 0xb7, 0x65, 0x00, 0x00, 0xb7, 0x64, 0x00, 0x00,
    0xb7, 0x06, 0x18, 0x00, 0xb7, 0x26, 0x00, 0x00, 0xb7, 0x65, 0x7f, 0x00, 0xb7, 0x64, 0x7f, 0x00,
    0xff, 0x04, 0x0c, 0x49, 0x6e, 0x73, 0x74, 0x72, 0x75, 0x6d, 0x65, 0x6e, 0x74, 0x20, 0x31, 0x00,
    0xc7, 0x55, 0x00, 0xb7, 0x07, 0x5c, 0x00, 0xb7, 0x0a, 0x40, 0x00, 0x97, 0x51, 0x5a, 0x18, 0x87,
    0x51, 0x5a, 0x48, 0x97, 0x4c, 0x5a, 0x30, 0x87, 0x4c, 0x5a, 0x00, 0x97, 0x4a, 0x5a, 0x30, 0x87,
    0x4a, 0x5a, 0x00, 0x97, 0x49, 0x5a, 0x81, 0x00, 0x87, 0x49, 0x5a, 0x10, 0x97, 0x49, 0x5a, 0x30,
    0x87, 0x49, 0x5a, 0x00, 0x97, 0x4a, 0x5a, 0x30, 0x87, 0x4a, 0x5a, 0x00, 0x97, 0x4c, 0x5a, 0x30,
    0x87, 0x4c, 0x5a, 0x00, 0x97, 0x4e, 0x5a, 0x30, 0x87, 0x4e, 0x5a, 0x00, 0x97, 0x50, 0x5a, 0x30,
    0x87, 0x50, 0x5a, 0x00, 0x97, 0x4c, 0x5a, 0x81, 0x28, 0x87, 0x4c, 0x5a, 0x18, 0x97, 0x4e, 0x5a,
    0x18, 0x87, 0x4e, 0x5a, 0x48, 0x97, 0x4c, 0x5a, 0x30, 0x87, 0x4c, 0x5a, 0x00, 0x97, 0x4a, 0x5a,
    0x30, 0x87, 0x4a, 0x5a, 0x00, 0x97, 0x49, 0x5a, 0x18, 0x87, 0x49, 0x5a, 0x48, 0x97, 0x49, 0x5a,
    0x18, 0x87, 0x49, 0x5a, 0x48, 0x97, 0x47, 0x5a, 0x18, 0x87, 0x47, 0x5a, 0x48, 0x97, 0x49, 0x5a,
    0x18, 0x87, 0x49, 0x5a, 0x48, 0x97, 0x4a, 0x5a, 0x81, 0x28, 0x87, 0x4a, 0x5a, 0x18, 0x97, 0x51,
    0x5a, 0x18, 0x87, 0x51, 0x5a, 0x48, 0x97, 0x4c, 0x5a, 0x30, 0x87, 0x4c, 0x5a, 0x00, 0x97, 0x4a,
    0x5a, 0x30, 0x87, 0x4a, 0x5a, 0x00, 0x97, 0x49, 0x5a, 0x81, 0x04, 0x87, 0x49, 0x5a, 0x3c, 0x97,
    0x49, 0x5a, 0x30, 0x87, 0x49, 0x5a, 0x00, 0x97, 0x4a, 0x5a, 0x30, 0x87, 0x4a, 0x5a, 0x00, 0x97,
    0x4c, 0x5a, 0x30, 0x87, 0x4c, 0x5a, 0x00, 0x97, 0x4e, 0x5a, 0x30, 0x87, 0x4e, 0x5a, 0x00, 0x97,
    0x4a, 0x5a, 0x81, 0x28, 0x87, 0x4a, 0x5a, 0x18, 0x97, 0x4e, 0x5a, 0x30, 0x87, 0x4e, 0x5a, 0x00,
    0x97, 0x4c, 0x5a, 0x30, 0x87, 0x4c, 0x5a, 0x00, 0x97, 0x4a, 0x5a, 0x30, 0x87, 0x4a, 0x5a, 0x00,
    0x97, 0x49, 0x5a, 0x30, 0x87, 0x49, 0x5a, 0x00, 0x97, 0x47, 0x5a, 0x30, 0x87, 0x47, 0x5a, 0x00,
    0x97, 0x49, 0x5a, 0x30, 0x87, 0x49, 0x5a, 0x00, 0x97, 0x4a, 0x5a, 0x30, 0x87, 0x4a, 0x5a, 0x00,
    0x97, 0x4e, 0x5a, 0x30, 0x87, 0x4e, 0x5a, 0x00, 0x97, 0x4c, 0x5a, 0x30, 0x87, 0x4c, 0x5a, 0x00,
    0x97, 0x4a, 0x5a, 0x30, 0x87, 0x4a, 0x5a, 0x00, 0x97, 0x49, 0x5a, 0x30, 0x87, 0x49, 0x5a, 0x00,
    0x97, 0x47, 0x5a, 0x30, 0x87, 0x47, 0x5a, 0x00, 0x97, 0x45, 0x5a, 0x81, 0x28, 0x87, 0x45, 0x5a,
    0x18, 0x97, 0x49, 0x5a, 0x30, 0x87, 0x49, 0x5a, 0x00, 0x97, 0x47, 0x5a, 0x30, 0x87, 0x47, 0x5a,
    0x00, 0x97, 0x49, 0x5a, 0x18, 0x87, 0x49, 0x5a, 0x48, 0x97, 0x49, 0x5a, 0x18, 0x87, 0x49, 0x5a,
    0x48, 0x97, 0x49, 0x5a, 0x30, 0x87, 0x49, 0x5a, 0x00, 0x97, 0x47, 0x5a, 0x30, 0x87, 0x47, 0x5a,
    0x00, 0x97, 0x49, 0x5a, 0x18, 0x87, 0x49, 0x5a, 0x48, 0x97, 0x47, 0x5a, 0x18, 0x87, 0x47, 0x5a,
    0x48, 0x97, 0x49, 0x5a, 0x81, 0x04, 0x87, 0x49, 0x5a, 0x3c, 0x97, 0x45, 0x5a, 0x30, 0x87, 0x45,
    0x5a, 0x00, 0x97, 0x47, 0x5a, 0x30, 0x87, 0x47, 0x5a, 0x00, 0x97, 0x49, 0x5a, 0x30, 0x87, 0x49,
    0x5a, 0x00, 0x97, 0x4a, 0x5a, 0x30, 0x87, 0x4a, 0x5a, 0x00, 0x97, 0x49, 0x5a, 0x18, 0x87, 0x49,
    0x5a, 0x48, 0x97, 0x47, 0x5a, 0x18, 0x87, 0x47, 0x5a, 0x48, 0x97, 0x49, 0x5a, 0x81, 0x28, 0x87,
    0x49, 0x5a, 0x81, 0x58, 0x97, 0x49, 0x5a, 0x30, 0x87, 0x49, 0x5a, 0x00, 0x97, 0x47, 0x5a, 0x30,
    0x87, 0x47, 0x5a, 0x00, 0x97, 0x49, 0x5a, 0x18, 0x87, 0x49, 0x5a, 0x48, 0x97, 0x49, 0x5a, 0x18,
    0x87, 0x49, 0x5a, 0x48, 0x97, 0x4a, 0x5a, 0x30, 0x87, 0x4a, 0x5a, 0x00, 0x97, 0x49, 0x5a, 0x30,
    0x87, 0x49, 0x5a, 0x00, 0x97, 0x47, 0x5a, 0x18, 0x87, 0x47, 0x5a, 0x48, 0x97, 0x45, 0x5a, 0x18,
    0x87, 0x45, 0x5a, 0x48, 0x97, 0x49, 0x5a, 0x81, 0x28, 0x87, 0x49, 0x5a, 0x18, 0x97, 0x49, 0x5a,
    0x30, 0x87, 0x49, 0x5a, 0x00, 0x97, 0x47, 0x5a, 0x30, 0x87, 0x47, 0x5a, 0x00, 0x97, 0x49, 0x5a,
    0x30, 0x87, 0x49, 0x5a, 0x00, 0x97, 0x4a, 0x5a, 0x30, 0x87, 0x4a, 0x5a, 0x00, 0x97, 0x49, 0x5a,
    0x18, 0x87, 0x49, 0x5a, 0x48, 0x97, 0x45, 0x5a, 0x18, 0x87, 0x45, 0x5a, 0x48, 0x97, 0x49, 0x5a,
    0x81, 0x28, 0x87, 0x49, 0x5a, 0x81, 0x58, 0x97, 0x4c, 0x5a, 0x30, 0x87, 0x4c, 0x5a, 0x00, 0x97,
    0x4a, 0x5a, 0x30, 0x87, 0x4a, 0x5a, 0x00, 0x97, 0x4c, 0x5a, 0x18, 0x87, 0x4c, 0x5a, 0x48, 0x97,
    0x4c, 0x5a, 0x18, 0x87, 0x4c, 0x5a, 0x48, 0x97, 0x4c, 0x5a, 0x30, 0x87, 0x4c, 0x5a, 0x00, 0x97,
    0x4a, 0x5a, 0x30, 0x87, 0x4a, 0x5a, 0x00, 0x97, 0x4c, 0x5a, 0x18, 0x87, 0x4c, 0x5a, 0x48, 0x97,
    0x4e, 0x5a, 0x18, 0x87, 0x4e, 0x5a, 0x48, 0x97, 0x4c, 0x5a, 0x81, 0x28, 0x87, 0x4c, 0x5a, 0x18,
    0x97, 0x50, 0x5a, 0x18, 0x87, 0x50, 0x5a, 0x48, 0x97, 0x50, 0x5a, 0x30, 0x87, 0x50, 0x5a, 0x00,
    0x97, 0x4e, 0x5a, 0x30, 0x87, 0x4e, 0x5a, 0x00, 0x97, 0x4c, 0x5a, 0x18, 0x87, 0x4c, 0x5a, 0x48,
    0x97, 0x4a, 0x5a, 0x18, 0x87, 0x4a, 0x5a, 0x48, 0x97, 0x4c, 0x5a, 0x81, 0x28, 0x87, 0x4c, 0x5a,
    0x81, 0x58, 0x97, 0x49, 0x5a, 0x30, 0x87, 0x49, 0x5a, 0x00, 0x97, 0x47, 0x5a, 0x30, 0x87, 0x47,
    0x5a, 0x00, 0x97, 0x49, 0x5a, 0x18, 0x87, 0x49, 0x5a, 0x48, 0x97, 0x49, 0x5a, 0x18, 0x87, 0x49,
    0x5a, 0x48, 0x97, 0x47, 0x5a, 0x30, 0x87, 0x47, 0x5a, 0x00, 0x97, 0x49, 0x5a, 0x30, 0x87, 0x49,
    0x5a, 0x00, 0x97, 0x4a, 0x5a, 0x18, 0x87, 0x4a, 0x5a, 0x48, 0x97, 0x47, 0x5a, 0x18, 0x87, 0x47,
    0x5a, 0x48, 0x97, 0x49, 0x5a, 0x81, 0x28, 0x87, 0x49, 0x5a, 0x18, 0x97, 0x49, 0x5a, 0x30, 0x87,
    0x49, 0x5a, 0x00, 0x97, 0x47, 0x5a, 0x30, 0x87, 0x47, 0x5a, 0x00, 0x97, 0x49, 0x5a, 0x30, 0x87,
    0x49, 0x5a, 0x00, 0x97, 0x4a, 0x5a, 0x30, 0x87, 0x4a, 0x5a, 0x00, 0x97, 0x49, 0x5a, 0x18, 0x87,
    0x49, 0x5a, 0x48, 0x97, 0x45, 0x5a, 0x18, 0x87, 0x45, 0x5a, 0x48, 0x97, 0x45, 0x5a, 0x18, 0x87,
    0x45, 0x5a, 0x82, 0x68, 0x97, 0x49, 0x5a, 0x30, 0x87, 0x49, 0x5a, 0x00, 0x97, 0x47, 0x5a, 0x30,
    0x87, 0x47, 0x5a, 0x00, 0x97, 0x49, 0x5a, 0x18, 0x87, 0x49, 0x5a, 0x48, 0x97, 0x49, 0x5a, 0x18,
    0x87, 0x49, 0x5a, 0x48, 0x97, 0x49, 0x5a, 0x30, 0x87, 0x49, 0x5a, 0x00, 0x97, 0x47, 0x5a, 0x30,
    0x87, 0x47, 0x5a, 0x00, 0x97, 0x49, 0x5a, 0x18, 0x87, 0x49, 0x5a, 0x48, 0x97, 0x47, 0x5a, 0x18,
    0x87, 0x47, 0x5a, 0x48, 0x97, 0x49, 0x5a, 0x81, 0x04, 0x87, 0x49, 0x5a, 0x3c, 0x97, 0x45, 0x5a,
    0x30, 0x87, 0x45, 0x5a, 0x00, 0x97, 0x47, 0x5a, 0x30, 0x87, 0x47, 0x5a, 0x00, 0x97, 0x49, 0x5a,
    0x30, 0x87, 0x49, 0x5a, 0x00, 0x97, 0x4a, 0x5a, 0x30, 0x87, 0x4a, 0x5a, 0x00, 0x97, 0x49, 0x5a,
    0x18, 0x87, 0x49, 0x5a, 0x48, 0x97, 0x47, 0x5a, 0x18, 0x87, 0x47, 0x5a, 0x48, 0x97, 0x49, 0x5a,
    0x81, 0x28, 0x87, 0x49, 0x5a, 0x81, 0x58, 0x97, 0x49, 0x5a, 0x30, 0x87, 0x49, 0x5a, 0x00, 0x97,
    0x47, 0x5a, 0x30, 0x87, 0x47, 0x5a, 0x00, 0x97, 0x49, 0x5a, 0x18, 0x87, 0x49, 0x5a, 0x48, 0x97,
    0x49, 0x5a, 0x18, 0x87, 0x49, 0x5a, 0x48, 0x97, 0x4a, 0x5a, 0x30, 0x87, 0x4a, 0x5a, 0x00, 0x97,
    0x49, 0x5a, 0x30, 0x87, 0x49, 0x5a, 0x00, 0x97, 0x47, 0x5a, 0x18, 0x87, 0x47, 0x5a, 0x48, 0x97,
    0x45, 0x5a, 0x18, 0x87, 0x45, 0x5a, 0x48, 0x97, 0x49, 0x5a, 0x81, 0x28, 0x87, 0x49, 0x5a, 0x18,
    0x97, 0x49, 0x5a, 0x30, 0x87, 0x49, 0x5a, 0x00, 0x97, 0x47, 0x5a, 0x30, 0x87, 0x47, 0x5a, 0x00,
    0x97, 0x49, 0x5a, 0x30, 0x87, 0x49, 0x5a, 0x00, 0x97, 0x4a, 0x5a, 0x30, 0x87, 0x4a, 0x5a, 0x00,
    0x97, 0x49, 0x5a, 0x18, 0x87, 0x49, 0x5a, 0x48, 0x97, 0x45, 0x5a, 0x18, 0x87, 0x45, 0x5a, 0x48,
    0x97, 0x49, 0x5a, 0x81, 0x28, 0x87, 0x49, 0x5a, 0x81, 0x58, 0x97, 0x4c, 0x5a, 0x30, 0x87, 0x4c,
    0x5a, 0x00, 0x97, 0x4a, 0x5a, 0x30, 0x87, 0x4a, 0x5a, 0x00, 0x97, 0x4c, 0x5a, 0x18, 0x87, 0x4c,
    0x5a, 0x48, 0x97, 0x4c, 0x5a, 0x18, 0x87, 0x4c, 0x5a, 0x48, 0x97, 0x4c, 0x5a, 0x30, 0x87, 0x4c,
    0x5a, 0x00, 0x97, 0x4a, 0x5a, 0x30, 0x87, 0x4a, 0x5a, 0x00, 0x97, 0x4c, 0x5a, 0x18, 0x87, 0x4c,
    0x5a, 0x48, 0x97, 0x4e, 0x5a, 0x18, 0x87, 0x4e, 0x5a, 0x48, 0x97, 0x4c, 0x5a, 0x81, 0x28, 0x87,
    0x4c, 0x5a, 0x18, 0x97, 0x50, 0x5a, 0x18, 0x87, 0x50, 0x5a, 0x48, 0x97, 0x50, 0x5a, 0x30, 0x87,
    0x50, 0x5a, 0x00, 0x97, 0x4e, 0x5a, 0x30, 0x87, 0x4e, 0x5a, 0x00, 0x97, 0x4c, 0x5a, 0x18, 0x87,
    0x4c, 0x5a, 0x48, 0x97, 0x4a, 0x5a, 0x18, 0x87, 0x4a, 0x5a, 0x48, 0x97, 0x4c, 0x5a, 0x81, 0x28,
    0x87, 0x4c, 0x5a, 0x81, 0x58, 0x97, 0x49, 0x5a, 0x30, 0x87, 0x49, 0x5a, 0x00, 0x97, 0x47, 0x5a,
    0x30, 0x87, 0x47, 0x5a, 0x00, 0x97, 0x49, 0x5a, 0x18, 0x87, 0x49, 0x5a, 0x48, 0x97, 0x49, 0x5a,
    0x18, 0x87, 0x49, 0x5a, 0x48, 0x97, 0x47, 0x5a, 0x30, 0x87, 0x47, 0x5a, 0x00, 0x97, 0x49, 0x5a,
    0x30, 0x87, 0x49, 0x5a, 0x00, 0x97, 0x4a, 0x5a, 0x18, 0x87, 0x4a, 0x5a, 0x48, 0x97, 0x47, 0x5a,
    0x18, 0x87, 0x47, 0x5a, 0x48, 0x97, 0x49, 0x5a, 0x81, 0x28, 0x87, 0x49, 0x5a, 0x18, 0x97, 0x49,
    0x5a, 0x30, 0x87, 0x49, 0x5a, 0x00, 0x97, 0x47, 0x5a, 0x30, 0x87, 0x47, 0x5a, 0x00, 0x97, 0x49,
    0x5a, 0x30, 0x87, 0x49, 0x5a, 0x00, 0x97, 0x4a, 0x5a, 0x30, 0x87, 0x4a, 0x5a, 0x00, 0x97, 0x49,
    0x5a, 0x18, 0x87, 0x49, 0x5a, 0x48, 0x97, 0x45, 0x5a, 0x18, 0x87, 0x45, 0x5a, 0x48, 0x97, 0x45,
    0x5a, 0x18, 0x87, 0x45, 0x5a, 0x85, 0x68, 0xff, 0x2f, 0x00, 0x4d, 0x54, 0x72, 0x6b, 0x00, 0x00,
    0x05, 0x95, 0x00, 0xff, 0x03, 0x0e, 0x70, 0x69, 0x74, 0x63, 0x68, 0x39, 0x20, 0x63, 0x68, 0x61,
    0x6e, 0x6e, 0x65, 0x6c, 0x00, 0xb8, 0x65, 0x00, 0x00, 0xb8, 0x64, 0x00, 0x00, 0xb8, 0x06, 0x18,
    0x00, 0xb8, 0x26, 0x00, 0x00, 0xb8, 0x65, 0x7f, 0x00, 0xb8, 0x64, 0x7f, 0x00, 0xff, 0x04, 0x0c,
    0x49, 0x6e, 0x73, 0x74, 0x72, 0x75, 0x6d, 0x65, 0x6e, 0x74, 0x20, 0x31, 0x00, 0xc8, 0x34, 0x00,
    0xb8, 0x07, 0x5c, 0x00, 0xb8, 0x0a, 0x40, 0x00, 0x98, 0x51, 0x5a, 0x18, 0x88, 0x51, 0x5a, 0x48,
    0x98, 0x4c, 0x5a, 0x30, 0x88, 0x4c, 0x5a, 0x00, 0x98, 0x4a, 0x5a, 0x30, 0x88, 0x4a, 0x5a, 0x00,
    0x98, 0x49, 0x5a, 0x81, 0x00, 0x88, 0x49, 0x5a, 0x10, 0x98, 0x49, 0x5a, 0x30, 0x88, 0x49, 0x5a,
    0x00, 0x98, 0x4a, 0x5a, 0x30, 0x88, 0x4a, 0x5a, 0x00, 0x98, 0x4c, 0x5a, 0x30, 0x88, 0x4c, 0x5a,
    0x00, 0x98, 0x4e, 0x5a, 0x30, 0x88, 0x4e, 0x5a, 0x00, 0x98, 0x50, 0x5a, 0x30, 0x88, 0x50, 0x5a,
    0x00, 0x98, 0x4c, 0x5a, 0x81, 0x28, 0x88, 0x4c, 0x5a, 0x18, 0x98, 0x4e, 0x5a, 0x18, 0x88, 0x4e,
    0x5a, 0x48, 0x98, 0x4c, 0x5a, 0x30, 0x88, 0x4c, 0x5a, 0x00, 0x98, 0x4a, 0x5a, 0x30, 0x88, 0x4a,
    0x5a, 0x00, 0x98, 0x49, 0x5a, 0x18, 0x88, 0x49, 0x5a, 0x48, 0x98, 0x49, 0x5a, 0x18, 0x88, 0x49,
    0x5a, 0x48, 0x98, 0x47, 0x5a, 0x18, 0x88, 0x47, 0x5a, 0x48, 0x98, 0x49, 0x5a, 0x18, 0x88, 0x49,
    0x5a, 0x48, 0x98, 0x4a, 0x5a, 0x81, 0x28, 0x88, 0x4a, 0x5a, 0x18, 0x98, 0x51, 0x5a, 0x18, 0x88,
    0x51, 0x5a, 0x48, 0x98, 0x4c, 0x5a, 0x30, 0x88, 0x4c, 0x5a, 0x00, 0x98, 0x4a, 0x5a, 0x30, 0x88,
    0x4a, 0x5a, 0x00, 0x98, 0x49, 0x5a, 0x81, 0x04, 0x88, 0x49, 0x5a, 0x3c, 0x98, 0x49, 0x5a, 0x30,
    0x88, 0x49, 0x5a, 0x00, 0x98, 0x4a, 0x5a, 0x30, 0x88, 0x4a, 0x5a, 0x00, 0x98, 0x4c, 0x5a, 0x30,
    0x88, 0x4c, 0x5a, 0x00, 0x98, 0x4e, 0x5a, 0x30, 0x88, 0x4e, 0x5a, 0x00, 0x98, 0x4a, 0x5a, 0x81,
    0x28, 0x88, 0x4a, 0x5a, 0x18, 0x98, 0x4e, 0x5a, 0x30, 0x88, 0x4e, 0x5a, 0x00, 0x98, 0x4c, 0x5a,
    0x30, 0x88, 0x4c, 0x5a, 0x00, 0x98, 0x4a, 0x5a, 0x30, 0x88, 0x4a, 0x5a, 0x00, 0x98, 0x49, 0x5a,
    0x30, 0x88, 0x49, 0x5a, 0x00, 0x98, 0x47, 0x5a, 0x30, 0x88, 0x47, 0x5a, 0x00, 0x98, 0x49, 0x5a,
    0x30, 0x88, 0x49, 0x5a, 0x00, 0x98, 0x4a, 0x5a, 0x30, 0x88, 0x4a, 0x5a, 0x00, 0x98, 0x4e, 0x5a,
    0x30, 0x88, 0x4e, 0x5a, 0x00, 0x98, 0x4c, 0x5a, 0x30, 0x88, 0x4c, 0x5a, 0x00, 0x98, 0x4a, 0x5a,
    0x30, 0x88, 0x4a, 0x5a, 0x00, 0x98, 0x49, 0x5a, 0x30, 0x88, 0x49, 0x5a, 0x00, 0x98, 0x47, 0x5a,
    0x30, 0x88, 0x47, 0x5a, 0x00, 0x98, 0x45, 0x5a, 0x81, 0x28, 0x88, 0x45, 0x5a, 0x18, 0x98, 0x49,
    0x5a, 0x30, 0x88, 0x49, 0x5a, 0x00, 0x98, 0x47, 0x5a, 0x30, 0x88, 0x47, 0x5a, 0x00, 0x98, 0x49,
    0x5a, 0x18, 0x88, 0x49, 0x5a, 0x48, 0x98, 0x49, 0x5a, 0x18, 0x88, 0x49, 0x5a, 0x48, 0x98, 0x49,
    0x5a, 0x30, 0x88, 0x49, 0x5a, 0x00, 0x98, 0x47, 0x5a, 0x30, 0x88, 0x47, 0x5a, 0x00, 0x98, 0x49,
    0x5a, 0x18, 0x88, 0x49, 0x5a, 0x48, 0x98, 0x47, 0x5a, 0x18, 0x88, 0x47, 0x5a, 0x48, 0x98, 0x49,
    0x5a, 0x81, 0x04, 0x88, 0x49, 0x5a, 0x3c, 0x98, 0x45, 0x5a, 0x30, 0x88, 0x45, 0x5a, 0x00, 0x98,
    0x47, 0x5a, 0x30, 0x88, 0x47, 0x5a, 0x00, 0x98, 0x49, 0x5a, 0x30, 0x88, 0x49, 0x5a, 0x00, 0x98,
    0x4a, 0x5a, 0x30, 0x88, 0x4a, 0x5a, 0x00, 0x98, 0x49, 0x5a, 0x18, 0x88, 0x49, 0x5a, 0x48, 0x98,
    0x47, 0x5a, 0x18, 0x88, 0x47, 0x5a, 0x48, 0x98, 0x49, 0x5a, 0x81, 0x28, 0x88, 0x49, 0x5a, 0x81,
    0x58, 0x98, 0x49, 0x5a, 0x30, 0x88, 0x49, 0x5a, 0x00, 0x98, 0x47, 0x5a, 0x30, 0x88, 0x47, 0x5a,
    0x00, 0x98, 0x49, 0x5a, 0x18, 0x88, 0x49, 0x5a, 0x48, 0x98, 0x49, 0x5a, 0x18, 0x88, 0x49, 0x5a,
    0x48, 0x98, 0x4a, 0x5a, 0x30, 0x88, 0x4a, 0x5a, 0x00, 0x98, 0x49, 0x5a, 0x30, 0x88, 0x49, 0x5a,
    0x00, 0x98, 0x47, 0x5a, 0x18, 0x88, 0x47, 0x5a, 0x48, 0x98, 0x45, 0x5a, 0x18, 0x88, 0x45, 0x5a,
    0x48, 0x98, 0x49, 0x5a, 0x81, 0x28, 0x88, 0x49, 0x5a, 0x18, 0x98, 0x49, 0x5a, 0x30, 0x88, 0x49,
    0x5a, 0x00, 0x98, 0x47, 0x5a, 0x30, 0x88, 0x47, 0x5a, 0x00, 0x98, 0x49, 0x5a, 0x30, 0x88, 0x49,
    0x5a, 0x00, 0x98, 0x4a, 0x5a, 0x30, 0x88, 0x4a, 0x5a, 0x00, 0x98, 0x49, 0x5a, 0x18, 0x88, 0x49,
    0x5a, 0x48, 0x98, 0x45, 0x5a, 0x18, 0x88, 0x45, 0x5a, 0x48, 0x98, 0x49, 0x5a, 0x81, 0x28, 0x88,
    0x49, 0x5a, 0x81, 0x58, 0x98, 0x4c, 0x5a, 0x30, 0x88, 0x4c, 0x5a, 0x00, 0x98, 0x4a, 0x5a, 0x30,
    0x88, 0x4a, 0x5a, 0x00, 0x98, 0x4c, 0x5a, 0x18, 0x88, 0x4c, 0x5a, 0x48, 0x98, 0x4c, 0x5a, 0x18,
    0x88, 0x4c, 0x5a, 0x48, 0x98, 0x4c, 0x5a, 0x30, 0x88, 0x4c, 0x5a, 0x00, 0x98, 0x4a, 0x5a, 0x30,
    0x88, 0x4a, 0x5a, 0x00, 0x98, 0x4c, 0x5a, 0x18, 0x88, 0x4c, 0x5a, 0x48, 0x98, 0x4e, 0x5a, 0x18,
    0x88, 0x4e, 0x5a, 0x48, 0x98, 0x4c, 0x5a, 0x81, 0x28, 0x88, 0x4c, 0x5a, 0x18, 0x98, 0x50, 0x5a,
    0x18, 0x88, 0x50, 0x5a, 0x48, 0x98, 0x50, 0x5a, 0x30, 0x88, 0x50, 0x5a, 0x00, 0x98, 0x4e, 0x5a,
    0x30, 0x88, 0x4e, 0x5a, 0x00, 0x98, 0x4c, 0x5a, 0x18, 0x88, 0x4c, 0x5a, 0x48, 0x98, 0x4a, 0x5a,
    0x18, 0x88, 0x4a, 0x5a, 0x48, 0x98, 0x4c, 0x5a, 0x81, 0x28, 0x88, 0x4c, 0x5a, 0x81, 0x58, 0x98,
    0x49, 0x5a, 0x30, 0x88, 0x49, 0x5a, 0x00, 0x98, 0x47, 0x5a, 0x30, 0x88, 0x47, 0x5a, 0x00, 0x98,
    0x49, 0x5a, 0x18, 0x88, 0x49, 0x5a, 0x48, 0x98, 0x49, 0x5a, 0x18, 0x88, 0x49, 0x5a, 0x48, 0x98,
    0x47, 0x5a, 0x30, 0x88, 0x47, 0x5a, 0x00, 0x98, 0x49, 0x5a, 0x30, 0x88, 0x49, 0x5a, 0x00, 0x98,
    0x4a, 0x5a, 0x18, 0x88, 0x4a, 0x5a, 0x48, 0x98, 0x47, 0x5a, 0x18, 0x88, 0x47, 0x5a, 0x48, 0x98,
    0x49, 0x5a, 0x81, 0x28, 0x88, 0x49, 0x5a, 0x18, 0x98, 0x49, 0x5a, 0x30, 0x88, 0x49, 0x5a, 0x00,
    0x98, 0x47, 0x5a, 0x30, 0x88, 0x47, 0x5a, 0x00, 0x98, 0x49, 0x5a, 0x30, 0x88, 0x49, 0x5a, 0x00,
    0x98, 0x4a, 0x5a, 0x30, 0x88, 0x4a, 0x5a, 0x00, 0x98, 0x49, 0x5a, 0x18, 0x88, 0x49, 0x5a, 0x48,
    0x98, 0x45, 0x5a, 0x18, 0x88, 0x45, 0x5a, 0x48, 0x98, 0x45, 0x5a, 0x18, 0x88, 0x45, 0x5a, 0x82,
    0x68, 0x98, 0x49, 0x5a, 0x30, 0x88, 0x49, 0x5a, 0x00, 0x98, 0x47, 0x5a, 0x30, 0x88, 0x47, 0x5a,
    0x00, 0x98, 0x49, 0x5a, 0x18, 0x88, 0x49, 0x5a, 0x48, 0x98, 0x49, 0x5a, 0x18, 0x88, 0x49, 0x5a,
    0x48, 0x98, 0x49, 0x5a, 0x30, 0x88, 0x49, 0x5a, 0x00, 0x98, 0x47, 0x5a, 0x30, 0x88, 0x47, 0x5a,
    0x00, 0x98, 0x49, 0x5a, 0x18, 0x88, 0x49, 0x5a, 0x48, 0x98, 0x47, 0x5a, 0x18, 0x88, 0x47, 0x5a,
    0x48, 0x98, 0x49, 0x5a, 0x81, 0x04, 0x88, 0x49, 0x5a, 0x3c, 0x98, 0x45, 0x5a, 0x30, 0x88, 0x45,
    0x5a, 0x00, 0x98, 0x47, 0x5a, 0x30, 0x88, 0x47, 0x5a, 0x00, 0x98, 0x49, 0x5a, 0x30, 0x88, 0x49,
    0x5a, 0x00, 0x98, 0x4a, 0x5a, 0x30, 0x88, 0x4a, 0x5a, 0x00, 0x98, 0x49, 0x5a, 0x18, 0x88, 0x49,
    0x5a, 0x48, 0x98, 0x47, 0x5a, 0x18, 0x88, 0x47, 0x5a, 0x48, 0x98, 0x49, 0x5a, 0x81, 0x28, 0x88,
    0x49, 0x5a, 0x81, 0x58, 0x98, 0x49, 0x5a, 0x30, 0x88, 0x49, 0x5a, 0x00, 0x98, 0x47, 0x5a, 0x30,
    0x88, 0x47, 0x5a, 0x00, 0x98, 0x49, 0x5a, 0x18, 0x88, 0x49, 0x5a, 0x48, 0x98, 0x49, 0x5a, 0x18,
    0x88, 0x49, 0x5a, 0x48, 0x98, 0x4a, 0x5a, 0x30, 0x88, 0x4a, 0x5a, 0x00, 0x98, 0x49, 0x5a, 0x30,
    0x88, 0x49, 0x5a, 0x00, 0x98, 0x47, 0x5a, 0x18, 0x88, 0x47, 0x5a, 0x48, 0x98, 0x45, 0x5a, 0x18,
    0x88, 0x45, 0x5a, 0x48, 0x98, 0x49, 0x5a, 0x81, 0x28, 0x88, 0x49, 0x5a, 0x18, 0x98, 0x49, 0x5a,
    0x30, 0x88, 0x49, 0x5a, 0x00, 0x98, 0x47, 0x5a, 0x30, 0x88, 0x47, 0x5a, 0x00, 0x98, 0x49, 0x5a,
    0x30, 0x88, 0x49, 0x5a, 0x00, 0x98, 0x4a, 0x5a, 0x30, 0x88, 0x4a, 0x5a, 0x00, 0x98, 0x49, 0x5a,
    0x18, 0x88, 0x49, 0x5a, 0x48, 0x98, 0x45, 0x5a, 0x18, 0x88, 0x45, 0x5a, 0x48, 0x98, 0x49, 0x5a,
    0x81, 0x28, 0x88, 0x49, 0x5a, 0x81, 0x58, 0x98, 0x4c, 0x5a, 0x30, 0x88, 0x4c, 0x5a, 0x00, 0x98,
    0x4a, 0x5a, 0x30, 0x88, 0x4a, 0x5a, 0x00, 0x98, 0x4c, 0x5a, 0x18, 0x88, 0x4c, 0x5a, 0x48, 0x98,
    0x4c, 0x5a, 0x18, 0x88, 0x4c, 0x5a, 0x48, 0x98, 0x4c, 0x5a, 0x30, 0x88, 0x4c, 0x5a, 0x00, 0x98,
    0x4a, 0x5a, 0x30, 0x88, 0x4a, 0x5a, 0x00, 0x98, 0x4c, 0x5a, 0x18, 0x88, 0x4c, 0x5a, 0x48, 0x98,
    0x4e, 0x5a, 0x18, 0x88, 0x4e, 0x5a, 0x48, 0x98, 0x4c, 0x5a, 0x81, 0x28, 0x88, 0x4c, 0x5a, 0x18,
    0x98, 0x50, 0x5a, 0x18, 0x88, 0x50, 0x5a, 0x48, 0x98, 0x50, 0x5a, 0x30, 0x88, 0x50, 0x5a, 0x00,
    0x98, 0x4e, 0x5a, 0x30, 0x88, 0x4e, 0x5a, 0x00, 0x98, 0x4c, 0x5a, 0x18, 0x88, 0x4c, 0x5a, 0x48,
    0x98, 0x4a, 0x5a, 0x18, 0x88, 0x4a, 0x5a, 0x48, 0x98, 0x4c, 0x5a, 0x81, 0x28, 0x88, 0x4c, 0x5a,
    0x81, 0x58, 0x98, 0x49, 0x5a, 0x30, 0x88, 0x49, 0x5a, 0x00, 0x98, 0x47, 0x5a, 0x30, 0x88, 0x47,
    0x5a, 0x00, 0x98, 0x49, 0x5a, 0x18, 0x88, 0x49, 0x5a, 0x48, 0x98, 0x49, 0x5a, 0x18, 0x88, 0x49,
    0x5a, 0x48, 0x98, 0x47, 0x5a, 0x30, 0x88, 0x47, 0x5a, 0x00, 0x98, 0x49, 0x5a, 0x30, 0x88, 0x49,
    0x5a, 0x00, 0x98, 0x4a, 0x5a, 0x18, 0x88, 0x4a, 0x5a, 0x48, 0x98, 0x47, 0x5a, 0x18, 0x88, 0x47,
    0x5a, 0x48, 0x98, 0x49, 0x5a, 0x81, 0x28, 0x88, 0x49, 0x5a, 0x18, 0x98, 0x49, 0x5a, 0x30, 0x88,
    0x49, 0x5a, 0x00, 0x98, 0x47, 0x5a, 0x30, 0x88, 0x47, 0x5a, 0x00, 0x98, 0x49, 0x5a, 0x30, 0x88,
    0x49, 0x5a, 0x00, 0x98, 0x4a, 0x5a, 0x30, 0x88, 0x4a, 0x5a, 0x00, 0x98, 0x49, 0x5a, 0x18, 0x88,
    0x49, 0x5a, 0x48, 0x98, 0x45, 0x5a, 0x18, 0x88, 0x45, 0x5a, 0x48, 0x98, 0x45, 0x5a, 0x18, 0x88,
    0x45, 0x5a, 0x85, 0x68, 0xff, 0x2f, 0x00,
];

// =============================================================================================
//                                      INSTRUMENT NAMES
// =============================================================================================

pub const INSTRUMENTS: [&str; 128] = [
    // Piano
    "Acoustic Grand",
    "Bright Acoustic",
    "Electric Grand",
    "Honky-Tonk",
    "Electric Piano 1",
    "Electric Piano 2",
    "Harpsichord",
    "Clavinet",
    // Chromatic Percussion
    "Celesta",
    "Glockenspiel",
    "Music Box",
    "Vibraphone",
    "Marimba",
    "Xylophone",
    "Tubular Bells",
    "Dulcimer",
    // Organ
    "Drawbar Organ",
    "Percussive Organ",
    "Rock Organ",
    "Church Organ",
    "Reed Organ",
    "Accordian",
    "Harmonica",
    "Tango Accordian",
    // Guitar
    "Nylon String Guitar",
    "Steel String Guitar",
    "Electric Jazz Guitar",
    "Electric Clean Guitar",
    "Electric Muted Guitar",
    "Overdriven Guitar",
    "Distortion Guitar",
    "Guitar Harmonics",
    // Bass
    "Acoustic Bass",
    "Electric Bass (finger)",
    "Electric Bass (pick)",
    "Fretless Bass",
    "Slap Bass 1",
    "Slap Bass 2",
    "Synth Bass 1",
    "Synth Bass 2",
    // Solo Strings
    "Violin",
    "Viola",
    "Cello",
    "Contrabass",
    "Tremolo Strings",
    "Pizzicato Strings",
    "Orchestral Strings",
    "Timpani",
    // Ensemble
    "String Ensemble 1",
    "String Ensemble 2",
    "SynthStrings 1",
    "SynthStrings 2",
    "Choir Aahs",
    "Voice Oohs",
    "Synth Voice",
    "Orchestra Hit",
    // Brass
    "Trumpet",
    "Trombone",
    "Tuba",
    "Muted Trumpet",
    "French Horn",
    "Brass Section",
    "SynthBrass 1",
    "SynthBrass 2",
    // Reed
    "Soprano Sax",
    "Alto Sax",
    "Tenor Sax",
    "Baritone Sax",
    "Oboe",
    "English Horn",
    "Bassoon",
    "Clarinet",
    // Pipe
    "Piccolo",
    "Flute",
    "Recorder",
    "Pan Flute",
    "Blown Bottle",
    "Shakuhachi",
    "Whistle",
    "Ocarina",
    // Synth Lead
    "Square Wave",
    "Saw Wave",
    "Syn. Calliope",
    "Chiffer Lead",
    "Charang",
    "Solo Vox",
    "5th Saw Wave",
    "Bass & Lead",
    // Synth Pad
    "Fantasia",
    "Warm Pad",
    "Polysynth",
    "Space Voice",
    "Bowed Glass",
    "Metal Pad",
    "Halo Pad",
    "Sweep Pad",
    // Synth Effects
    "Ice Rain",
    "Soundtrack",
    "Crystal",
    "Atmosphere",
    "Brightness",
    "Goblin",
    "Echo Drops",
    "Star Theme",
    // Ethnic
    "Sitar",
    "Banjo",
    "Shamisen",
    "Koto",
    "Kalimba",
    "Bagpipe",
    "Fiddle",
    "Shanai",
    // Percussive
    "Tinkle Bell",
    "Agogo",
    "Steel Drums",
    "Woodblock",
    "Taiko Drum",
    "Melodic Tom",
    "Synth Drum",
    "Reverse Cymbal",
    // Sound Effects
    "Guitar Fret Noise",
    "Breath Noise",
    "Seashore",
    "Bird Tweet",
    "Telephone Ring",
    "Helicopter",
    "Applause",
    "Gunshot",
];
